<svg width="42" height="33" viewBox="0 0 42 33" fill="none" xmlns="http://www.w3.org/2000/svg">
<path d="M8.72855 6.93534C9.12853 6.45038 9.87148 6.45039 10.2715 6.93534L13.6352 11.0137C14.1732 11.666 13.7093 12.65 12.8638 12.65H6.13621C5.29075 12.65 4.8268 11.666 5.36476 11.0137L8.72855 6.93534Z" fill="#449966"/>
<path d="M8.73201 9.45424C9.13179 8.97485 9.8682 8.97486 10.268 9.45424L15.2622 15.4429C15.8053 16.0941 15.3422 17.0833 14.4942 17.0833H4.50577C3.65776 17.0833 3.19467 16.0941 3.73779 15.4429L8.73201 9.45424Z" fill="#449966"/>
<path d="M8.72855 12.6353C9.12853 12.1504 9.87147 12.1504 10.2715 12.6353L16.3777 20.0387C16.9156 20.691 16.4517 21.675 15.6062 21.675H3.3938C2.54833 21.675 2.08438 20.691 2.62234 20.0387L8.72855 12.6353Z" fill="#449966"/>
<rect x="6.96666" y="19.9333" width="5.06667" height="7.6" rx="1" fill="#449966"/>
<path d="M31.7286 6.93534C32.1285 6.45038 32.8715 6.45039 33.2715 6.93534L36.6352 11.0137C37.1732 11.666 36.7093 12.65 35.8638 12.65H29.1362C28.2907 12.65 27.8268 11.666 28.3648 11.0137L31.7286 6.93534Z" fill="#449966"/>
<path d="M31.732 9.45424C32.1318 8.97485 32.8682 8.97486 33.268 9.45424L38.2622 15.4429C38.8053 16.0941 38.3422 17.0833 37.4942 17.0833H27.5058C26.6578 17.0833 26.1947 16.0941 26.7378 15.4429L31.732 9.45424Z" fill="#449966"/>
<path d="M31.7285 12.6353C32.1285 12.1504 32.8715 12.1504 33.2715 12.6353L39.3777 20.0387C39.9156 20.691 39.4517 21.675 38.6062 21.675H26.3938C25.5483 21.675 25.0844 20.691 25.6223 20.0387L31.7285 12.6353Z" fill="#449966"/>
<rect x="29.9667" y="19.9333" width="5.06667" height="7.6" rx="1" fill="#449966"/>
<mask id="path-9-outside-1" maskUnits="userSpaceOnUse" x="8" y="0" width="26" height="33" fill="black">
<rect fill="white" x="8" width="26" height="33"/>
<path fill-rule="evenodd" clip-rule="evenodd" d="M21.7148 1.33702C21.3442 0.887659 20.6558 0.887659 20.2852 1.33702L14.2259 8.68353C13.7274 9.2879 14.1573 10.1997 14.9407 10.1997H15.9772L11.8356 15.1659C11.3323 15.7694 11.7614 16.686 12.5472 16.686H14.5038L10.2135 21.8877C9.71506 22.4921 10.145 23.4039 10.9284 23.4039H17.2936V31.0484C17.2936 31.5602 17.7084 31.975 18.2202 31.975H23.7798C24.2916 31.975 24.7064 31.5602 24.7064 31.0484V23.4039H31.0716C31.855 23.4039 32.2849 22.4921 31.7865 21.8877L27.4962 16.686H29.4528C30.2386 16.686 30.6677 15.7694 30.1644 15.1659L26.0228 10.1997H27.0593C27.8427 10.1997 28.2726 9.2879 27.7741 8.68353L21.7148 1.33702Z"/>
</mask>
<path fill-rule="evenodd" clip-rule="evenodd" d="M21.7148 1.33702C21.3442 0.887659 20.6558 0.887659 20.2852 1.33702L14.2259 8.68353C13.7274 9.2879 14.1573 10.1997 14.9407 10.1997H15.9772L11.8356 15.1659C11.3323 15.7694 11.7614 16.686 12.5472 16.686H14.5038L10.2135 21.8877C9.71506 22.4921 10.145 23.4039 10.9284 23.4039H17.2936V31.0484C17.2936 31.5602 17.7084 31.975 18.2202 31.975H23.7798C24.2916 31.975 24.7064 31.5602 24.7064 31.0484V23.4039H31.0716C31.855 23.4039 32.2849 22.4921 31.7865 21.8877L27.4962 16.686H29.4528C30.2386 16.686 30.6677 15.7694 30.1644 15.1659L26.0228 10.1997H27.0593C27.8427 10.1997 28.2726 9.2879 27.7741 8.68353L21.7148 1.33702Z" fill="#449966"/>
<path d="M20.2852 1.33702L19.5137 0.700736V0.700737L20.2852 1.33702ZM21.7148 1.33702L20.9434 1.97331L20.9434 1.97331L21.7148 1.33702ZM14.2259 8.68353L14.9973 9.31981H14.9973L14.2259 8.68353ZM15.9772 10.1997L16.7451 10.8402L18.1132 9.19972H15.9772V10.1997ZM11.8356 15.1659L12.6036 15.8064L11.8356 15.1659ZM14.5038 16.686L15.2753 17.3223L16.6249 15.686H14.5038V16.686ZM10.2135 21.8877L10.985 22.524H10.985L10.2135 21.8877ZM17.2936 23.4039H18.2936V22.4039H17.2936V23.4039ZM24.7064 23.4039V22.4039H23.7064V23.4039H24.7064ZM31.7865 21.8877L31.015 22.524L31.7865 21.8877ZM27.4962 16.686V15.686H25.3751L26.7247 17.3223L27.4962 16.686ZM30.1644 15.1659L30.9324 14.5254L30.1644 15.1659ZM26.0228 10.1997V9.19972H23.8868L25.2549 10.8402L26.0228 10.1997ZM27.7741 8.68353L28.5456 8.04724V8.04724L27.7741 8.68353ZM21.0566 1.97331C21.0273 2.0089 20.9727 2.0089 20.9434 1.97331L22.4863 0.700737C21.7157 -0.23358 20.2843 -0.233578 19.5137 0.700736L21.0566 1.97331ZM14.9973 9.31981L21.0566 1.97331L19.5137 0.700737L13.4544 8.04724L14.9973 9.31981ZM14.9407 9.19972C14.9406 9.19972 14.9464 9.19983 14.9559 9.20273C14.9652 9.20555 14.9743 9.20991 14.9823 9.21523C14.9976 9.2254 15.0042 9.23576 15.0071 9.24181C15.0099 9.24787 15.0137 9.25957 15.0118 9.27783C15.0109 9.28739 15.0084 9.29721 15.0047 9.30616C15.0009 9.31536 14.9972 9.31991 14.9973 9.31981L13.4544 8.04724C12.418 9.30385 13.3118 11.1997 14.9407 11.1997V9.19972ZM15.9772 9.19972H14.9407V11.1997H15.9772V9.19972ZM12.6036 15.8064L16.7451 10.8402L15.2092 9.55926L11.0676 14.5254L12.6036 15.8064ZM12.5472 15.686C12.547 15.686 12.5528 15.6861 12.5624 15.689C12.5717 15.6918 12.5809 15.6962 12.5889 15.7016C12.6043 15.7118 12.6109 15.7222 12.6137 15.7283C12.6165 15.7343 12.6203 15.746 12.6183 15.7643C12.6173 15.7739 12.6148 15.7838 12.611 15.7928C12.6071 15.802 12.6035 15.8065 12.6036 15.8064L11.0676 14.5254C10.0212 15.7802 10.9134 17.686 12.5472 17.686V15.686ZM14.5038 15.686H12.5472V17.686H14.5038V15.686ZM10.985 22.524L15.2753 17.3223L13.7324 16.0497L9.44208 21.2514L10.985 22.524ZM10.9284 22.4039C10.9282 22.4039 10.934 22.404 10.9436 22.4069C10.9529 22.4097 10.962 22.4141 10.97 22.4194C10.9853 22.4296 10.9919 22.4399 10.9948 22.446C10.9976 22.452 11.0014 22.4637 10.9995 22.482C10.9985 22.4916 10.9961 22.5014 10.9923 22.5103C10.9885 22.5195 10.9849 22.5241 10.985 22.524L9.44208 21.2514C8.40565 22.508 9.29948 24.4039 10.9284 24.4039V22.4039ZM17.2936 22.4039H10.9284V24.4039H17.2936V22.4039ZM18.2936 31.0484V23.4039H16.2936V31.0484H18.2936ZM18.2202 30.975C18.2607 30.975 18.2936 31.0079 18.2936 31.0484H16.2936C16.2936 32.1125 17.1561 32.975 18.2202 32.975V30.975ZM23.7798 30.975H18.2202V32.975H23.7798V30.975ZM23.7064 31.0484C23.7064 31.0079 23.7393 30.975 23.7798 30.975V32.975C24.8439 32.975 25.7064 32.1125 25.7064 31.0484H23.7064ZM23.7064 23.4039V31.0484H25.7064V23.4039H23.7064ZM31.0716 22.4039H24.7064V24.4039H31.0716V22.4039ZM31.015 22.524C31.0151 22.5241 31.0115 22.5195 31.0077 22.5103C31.0039 22.5014 31.0015 22.4916 31.0005 22.482C30.9986 22.4637 31.0024 22.452 31.0052 22.446C31.0081 22.4399 31.0147 22.4296 31.03 22.4194C31.038 22.4141 31.0471 22.4097 31.0564 22.4069C31.0659 22.404 31.0718 22.4039 31.0716 22.4039V24.4039C32.7005 24.4039 33.5944 22.508 32.5579 21.2514L31.015 22.524ZM26.7247 17.3223L31.015 22.524L32.5579 21.2514L28.2676 16.0497L26.7247 17.3223ZM29.4528 15.686H27.4962V17.686H29.4528V15.686ZM29.3964 15.8064C29.3965 15.8065 29.3929 15.802 29.389 15.7928C29.3852 15.7838 29.3827 15.7739 29.3817 15.7643C29.3797 15.746 29.3835 15.7343 29.3863 15.7283C29.3891 15.7222 29.3957 15.7118 29.4111 15.7016C29.4191 15.6962 29.4283 15.6918 29.4376 15.689C29.4472 15.6861 29.453 15.686 29.4528 15.686V17.686C31.0866 17.686 31.9788 15.7802 30.9324 14.5254L29.3964 15.8064ZM25.2549 10.8402L29.3964 15.8064L30.9324 14.5254L26.7908 9.55926L25.2549 10.8402ZM27.0593 9.19972H26.0228V11.1997H27.0593V9.19972ZM27.0027 9.31981C27.0028 9.31991 26.9991 9.31536 26.9953 9.30616C26.9916 9.29721 26.9891 9.28739 26.9882 9.27783C26.9863 9.25957 26.9901 9.24787 26.9929 9.24181C26.9958 9.23576 27.0024 9.2254 27.0177 9.21523C27.0257 9.20991 27.0348 9.20555 27.0441 9.20273C27.0536 9.19983 27.0594 9.19972 27.0593 9.19972V11.1997C28.6882 11.1997 29.582 9.30385 28.5456 8.04724L27.0027 9.31981ZM20.9434 1.97331L27.0027 9.31981L28.5456 8.04724L22.4863 0.700737L20.9434 1.97331Z" fill="#F8EBCF" mask="url(#path-9-outside-1)"/>
</svg>
