<svg width="29" height="29" viewBox="0 0 29 29" fill="none" xmlns="http://www.w3.org/2000/svg">
<circle cx="14.5" cy="14.5" r="14.5" fill="#F8EBCF"/>
<path d="M16.4863 18.8857C16.4863 18.2985 16.3216 17.833 15.9922 17.4893C15.6699 17.1383 15.1185 16.8161 14.3379 16.5225C13.5573 16.2288 12.8841 15.9388 12.3184 15.6523C11.7526 15.3587 11.2656 15.0257 10.8574 14.6533C10.4564 14.2738 10.1413 13.8298 9.91211 13.3213C9.6901 12.8128 9.5791 12.2077 9.5791 11.5059C9.5791 10.2956 9.96582 9.30371 10.7393 8.53027C11.5127 7.75684 12.5404 7.30566 13.8223 7.17676V4.87793H15.541V7.20898C16.8086 7.38802 17.8005 7.91797 18.5166 8.79883C19.2327 9.67253 19.5908 10.8076 19.5908 12.2041H16.4863C16.4863 11.3447 16.3073 10.7038 15.9492 10.2812C15.5983 9.85156 15.1257 9.63672 14.5312 9.63672C13.944 9.63672 13.4893 9.80501 13.167 10.1416C12.8447 10.471 12.6836 10.9294 12.6836 11.5166C12.6836 12.0609 12.8411 12.4977 13.1562 12.8271C13.4714 13.1566 14.055 13.4932 14.9072 13.8369C15.7666 14.1807 16.472 14.5065 17.0234 14.8145C17.5749 15.1152 18.0404 15.459 18.4199 15.8457C18.7995 16.2253 19.0895 16.6621 19.29 17.1562C19.4906 17.6432 19.5908 18.2126 19.5908 18.8643C19.5908 20.0817 19.2113 21.07 18.4521 21.8291C17.693 22.5882 16.6475 23.0358 15.3154 23.1719V25.3096H13.6074V23.1826C12.1393 23.0251 11.0007 22.5059 10.1914 21.625C9.38932 20.737 8.98828 19.5589 8.98828 18.0908H12.0928C12.0928 18.943 12.2933 19.5983 12.6943 20.0566C13.1025 20.5078 13.6862 20.7334 14.4453 20.7334C15.0755 20.7334 15.5732 20.5687 15.9385 20.2393C16.3037 19.9027 16.4863 19.4515 16.4863 18.8857Z" fill="#449966"/>
</svg>
