<svg width="26" height="23" viewBox="0 0 26 23" fill="none" xmlns="http://www.w3.org/2000/svg">
<path fill-rule="evenodd" clip-rule="evenodd" d="M15.8126 1.07414C14.3804 -0.358048 12.0584 -0.358048 10.6262 1.07414L1.07414 10.6262C-0.35805 12.0584 -0.358046 14.3805 1.07415 15.8127L6.58118 21.3197C8.01337 22.7519 10.3354 22.7519 11.7676 21.3197L21.3197 11.7676C22.7519 10.3354 22.7519 8.01337 21.3197 6.58118L15.8126 1.07414ZM5.11917 10.0388L12.355 17.2747L10.0388 19.5909C9.5614 20.0683 8.78739 20.0683 8.30999 19.5909L2.80295 14.0839C2.32556 13.6065 2.32556 12.8324 2.80295 12.355L5.11917 10.0388Z" fill="#449966"/>
<path fill-rule="evenodd" clip-rule="evenodd" d="M25.4999 22.3878H9.17432V19.9429H25.4999V22.3878Z" fill="#449966"/>
</svg>
