<svg width="28" height="28" viewBox="0 0 28 28" fill="none" xmlns="http://www.w3.org/2000/svg">
<path d="M19.7641 15.0037L8.46652 3.5L6.68468 5.31434L9.69232 8.37684L3.18419 15.0037C2.4386 15.7629 2.4386 16.9853 3.18419 17.7316L10.1346 24.8088C10.5011 25.182 10.9939 25.375 11.4742 25.375C11.9544 25.375 12.4472 25.182 12.8137 24.8088L19.7641 17.7316C20.5097 16.9853 20.5097 15.7629 19.7641 15.0037ZM5.42097 16.3676L11.4742 10.204L17.5273 16.3676H5.42097ZM22.8476 18.2978C22.8476 18.2978 20.3201 21.0901 20.3201 22.8015C20.3201 24.2169 21.4575 25.375 22.8476 25.375C24.2377 25.375 25.375 24.2169 25.375 22.8015C25.375 21.0901 22.8476 18.2978 22.8476 18.2978Z" fill="#449966"/>
</svg>
