<?xml version="1.0" encoding="utf-8"?>
<svg xmlns="http://www.w3.org/2000/svg" xmlns:xlink="http://www.w3.org/1999/xlink" style="margin: auto; background: rgba(255, 255, 255, 0); display: block; shape-rendering: auto;" width="200px" height="200px" viewBox="0 0 100 100" preserveAspectRatio="xMidYMid">
<defs>
  <pattern id="ldio-6t77kfjqvj6-pattern" patternUnits="userSpaceOnUse" x="0" y="0" width="100" height="100">
    <g>
      <g transform="rotate(20 50 50) scale(1.2)">
        <rect x="-20" y="-10" width="10" height="120" fill="#449966"></rect>
        <rect x="-10" y="-10" width="10" height="120" fill="#f8ebcf"></rect>
        <rect x="0" y="-10" width="10" height="120" fill="#449966"></rect>
        <rect x="10" y="-10" width="10" height="120" fill="#f8ebcf"></rect>
        <rect x="20" y="-10" width="10" height="120" fill="#449966"></rect>
        <rect x="30" y="-10" width="10" height="120" fill="#f8ebcf"></rect>
        <rect x="40" y="-10" width="10" height="120" fill="#449966"></rect>
        <rect x="50" y="-10" width="10" height="120" fill="#f8ebcf"></rect>
        <rect x="60" y="-10" width="10" height="120" fill="#449966"></rect>
        <rect x="70" y="-10" width="10" height="120" fill="#f8ebcf"></rect>
        <rect x="80" y="-10" width="10" height="120" fill="#449966"></rect>
        <rect x="90" y="-10" width="10" height="120" fill="#f8ebcf"></rect>
        <rect x="100" y="-10" width="10" height="120" fill="#449966"></rect>
        <rect x="110" y="-10" width="10" height="120" fill="#449966"></rect>
      </g>
      <animateTransform attributeName="transform" type="translate" values="0 0;26 0" keyTimes="0;1" dur="0.33898305084745767s" repeatCount="indefinite"></animateTransform>
    </g>
  </pattern>
</defs>
<rect rx="6.37" ry="6.37" x="4.5" y="43.5" stroke="#449966" stroke-width="2" width="91" height="13" fill="url(#ldio-6t77kfjqvj6-pattern)"></rect>
<!-- [ldio] generated by https://loading.io/ --></svg>