<svg width="1074" height="312" viewBox="0 0 1074 312" fill="none" xmlns="http://www.w3.org/2000/svg">
<path d="M265 132.5C265 205.678 205.678 265 132.5 265C59.3223 265 0 205.678 0 132.5C0 59.3223 59.3223 0 132.5 0C205.678 0 265 59.3223 265 132.5Z" fill="#449966"/>
<mask id="mask0" mask-type="alpha" maskUnits="userSpaceOnUse" x="0" y="0" width="265" height="265">
<path d="M265 132.5C265 205.678 205.678 265 132.5 265C59.3223 265 0 205.678 0 132.5C0 59.3223 59.3223 0 132.5 0C205.678 0 265 59.3223 265 132.5Z" fill="#37E4A8"/>
</mask>
<g mask="url(#mask0)">
<path d="M225.876 225.876C328.217 123.535 284.718 77.3329 233.02 25.6355L21.0126 215.169C72.71 266.867 123.535 328.217 225.876 225.876Z" fill="#2E8350"/>
</g>
<path d="M91.2459 104.779C76.6485 125.289 51.999 132.793 36.1898 121.541C20.3805 110.289 19.3981 84.541 33.9954 64.0317C48.5928 43.5223 73.2422 36.0179 89.0515 47.27C104.861 58.5222 105.843 84.2699 91.2459 104.779Z" fill="#F8EBCF"/>
<path d="M34 94.7781L203.379 35C203.379 35 218.472 88.4635 261.236 136.033C304 183.603 304 235.383 304 235.383L142.168 312C142.168 312 145.941 244.644 108.627 194.97C71.3137 145.295 34 94.7781 34 94.7781Z" fill="#F8EBCF"/>
<path fill-rule="evenodd" clip-rule="evenodd" d="M203.379 35C203.379 35 204.258 38.1144 206.193 43.5086C212.276 60.464 228.793 99.9447 261.236 136.033C304 183.603 304 235.383 304 235.383L142.168 312C142.168 312 142.373 308.328 142.214 302.067C141.69 281.512 137.229 233.047 108.627 194.97C79.982 156.835 51.3366 118.204 39.5734 102.313C36.0137 97.5044 34 94.7781 34 94.7781L203.379 35ZM197.771 46.4812L48.3932 99.2002C52.4174 104.634 57.9377 112.082 64.4775 120.887C78.4649 139.718 97.1113 164.752 115.755 189.572C135.615 216.011 144.357 246.854 148.203 270.678C149.927 281.356 150.688 290.753 151.002 297.907L294.713 229.869C294.645 229.176 294.564 228.424 294.468 227.616C293.847 222.419 292.594 214.929 290.067 205.997C285.012 188.133 274.891 164.602 254.609 142.04C232.487 117.432 217.579 91.3733 208.204 71.5183C203.509 61.5745 200.18 53.1415 198.015 47.1589C197.932 46.9294 197.85 46.7035 197.771 46.4812Z" fill="#449966"/>
<path fill-rule="evenodd" clip-rule="evenodd" d="M202.965 93.5447L94.6893 131.884L71.5912 105.201L194.648 74.5366L202.965 93.5447Z" fill="#449966"/>
<path fill-rule="evenodd" clip-rule="evenodd" d="M229.693 123.52L118.584 167.327L115.796 147.415L218.941 103.608L229.693 123.52Z" fill="#449966"/>
<path fill-rule="evenodd" clip-rule="evenodd" d="M245.623 152.991L135.31 201.974L135.31 181.266L232.879 141.043L245.623 152.991Z" fill="#449966"/>
<path fill-rule="evenodd" clip-rule="evenodd" d="M268.721 182.859L156.815 237.02L163.585 205.559L261.154 168.124L268.721 182.859Z" fill="#449966"/>
<path fill-rule="evenodd" clip-rule="evenodd" d="M283.309 221.282L158.097 271.45L158.097 255.122L279.872 197.195L283.309 221.282Z" fill="#449966"/>
<path d="M387.51 162.78V201.491H364V91.6214H408.512C417.08 91.6214 424.603 93.1306 431.082 96.149C437.612 99.1674 442.628 103.469 446.128 109.053C449.628 114.586 451.379 120.9 451.379 127.993C451.379 138.759 447.539 147.26 439.859 153.498C432.231 159.686 421.652 162.78 408.12 162.78H387.51ZM387.51 144.443H408.512C414.729 144.443 419.457 143.035 422.696 140.217C425.988 137.4 427.634 133.376 427.634 128.144C427.634 122.761 425.988 118.41 422.696 115.089C419.405 111.769 414.86 110.059 409.061 109.958H387.51V144.443Z" fill="#3D895B"/>
<path d="M514.307 201.491C513.262 199.529 512.504 197.089 512.034 194.171C506.549 200.057 499.417 203 490.64 203C482.333 203 475.437 200.686 469.951 196.058C464.518 191.43 461.801 185.594 461.801 178.551C461.801 169.898 465.119 163.258 471.754 158.63C478.441 154.001 488.08 151.662 500.671 151.612H511.094V146.933C511.094 143.16 510.075 140.142 508.038 137.878C506.052 135.614 502.891 134.483 498.555 134.483C494.741 134.483 491.737 135.363 489.543 137.124C487.401 138.884 486.33 141.299 486.33 144.368H463.682C463.682 139.639 465.197 135.262 468.227 131.238C471.258 127.213 475.542 124.069 481.079 121.805C486.617 119.491 492.834 118.334 499.731 118.334C510.18 118.334 518.46 120.875 524.573 125.956C530.738 130.986 533.82 138.079 533.82 147.235V182.626C533.872 190.373 534.996 196.234 537.19 200.208V201.491H514.307ZM495.577 186.323C498.921 186.323 502.003 185.619 504.824 184.211C507.646 182.752 509.735 180.815 511.094 178.4V164.365H502.63C491.293 164.365 485.259 168.138 484.528 175.684L484.449 176.966C484.449 179.683 485.442 181.922 487.427 183.682C489.412 185.443 492.129 186.323 495.577 186.323Z" fill="#3D895B"/>
<path d="M597.14 178.928C597.14 176.262 595.756 174.174 592.987 172.665C590.27 171.106 585.882 169.722 579.821 168.515C559.655 164.44 549.572 156.19 549.572 143.764C549.572 136.52 552.68 130.483 558.897 125.654C565.167 120.774 573.343 118.334 583.426 118.334C594.188 118.334 602.783 120.774 609.209 125.654C615.687 130.534 618.926 136.872 618.926 144.67H596.278C596.278 141.551 595.233 138.985 593.143 136.973C591.054 134.91 587.788 133.879 583.348 133.879C579.534 133.879 576.582 134.709 574.492 136.369C572.402 138.029 571.358 140.142 571.358 142.708C571.358 145.122 572.533 147.084 574.884 148.594C577.287 150.052 581.31 151.335 586.953 152.442C592.595 153.498 597.349 154.706 601.215 156.064C613.179 160.29 619.161 167.609 619.161 178.023C619.161 185.468 615.844 191.505 609.209 196.133C602.574 200.711 594.006 203 583.504 203C576.399 203 570.078 201.793 564.54 199.378C559.054 196.913 554.744 193.568 551.609 189.342C548.475 185.066 546.907 180.463 546.907 175.533H568.38C568.589 179.406 570.078 182.374 572.847 184.437C575.616 186.499 579.325 187.531 583.975 187.531C588.311 187.531 591.576 186.751 593.77 185.191C596.017 183.582 597.14 181.494 597.14 178.928Z" fill="#3D895B"/>
<path d="M660.93 99.7711V119.843H675.428V135.841H660.93V176.589C660.93 179.607 661.531 181.771 662.733 183.079C663.934 184.387 666.233 185.041 669.629 185.041C672.137 185.041 674.357 184.865 676.29 184.512V201.038C671.849 202.346 667.278 203 662.576 203C646.694 203 638.596 195.278 638.283 179.834V135.841H625.901V119.843H638.283V99.7711H660.93Z" fill="#3D895B"/>
<path d="M727.072 203C714.638 203 704.502 199.328 696.666 191.983C688.881 184.638 684.989 174.854 684.989 162.629V160.516C684.989 152.316 686.635 144.997 689.926 138.557C693.217 132.068 697.867 127.088 703.875 123.616C709.936 120.095 716.832 118.334 724.564 118.334C736.162 118.334 745.279 121.856 751.914 128.899C758.601 135.941 761.945 145.927 761.945 158.856V167.76H707.95C708.682 173.093 710.876 177.369 714.533 180.588C718.242 183.808 722.918 185.418 728.561 185.418C737.285 185.418 744.103 182.374 749.014 176.287L760.142 188.285C756.746 192.914 752.149 196.536 746.35 199.152C740.551 201.717 734.125 203 727.072 203ZM724.486 135.992C719.993 135.992 716.336 137.451 713.514 140.368C710.745 143.286 708.969 147.462 708.185 152.895H739.689V151.159C739.584 146.33 738.226 142.607 735.614 139.991C733.001 137.325 729.292 135.992 724.486 135.992Z" fill="#3D895B"/>
<path d="M839.841 183.305H889.76V201.491H816.331V91.6214H839.841V183.305Z" fill="#3D895B"/>
<path d="M925.731 201.491H903.004V119.843H925.731V201.491ZM901.672 98.7146C901.672 95.4447 902.795 92.7533 905.042 90.6405C907.341 88.5276 910.449 87.4711 914.367 87.4711C918.234 87.4711 921.316 88.5276 923.615 90.6405C925.914 92.7533 927.063 95.4447 927.063 98.7146C927.063 102.035 925.887 104.751 923.536 106.864C921.238 108.977 918.181 110.034 914.367 110.034C910.554 110.034 907.471 108.977 905.12 106.864C902.822 104.751 901.672 102.035 901.672 98.7146Z" fill="#3D895B"/>
<path d="M950.651 201.491V135.841H938.034V119.843H950.651V112.901C950.651 103.745 953.368 96.6521 958.801 91.6214C964.287 86.5405 971.941 84 981.763 84C984.897 84 988.737 84.5031 993.283 85.5092L993.047 102.412C991.167 101.959 988.868 101.733 986.151 101.733C977.635 101.733 973.377 105.581 973.377 113.278V119.843H990.226V135.841H973.377V201.491H950.651Z" fill="#3D895B"/>
<path d="M1039.13 203C1026.69 203 1016.56 199.328 1008.72 191.983C1000.94 184.638 997.044 174.854 997.044 162.629V160.516C997.044 152.316 998.69 144.997 1001.98 138.557C1005.27 132.068 1009.92 127.088 1015.93 123.616C1021.99 120.095 1028.89 118.334 1036.62 118.334C1048.22 118.334 1057.33 121.856 1063.97 128.899C1070.66 135.941 1074 145.927 1074 158.856V167.76H1020.01C1020.74 173.093 1022.93 177.369 1026.59 180.588C1030.3 183.808 1034.97 185.418 1040.62 185.418C1049.34 185.418 1056.16 182.374 1061.07 176.287L1072.2 188.285C1068.8 192.914 1064.2 196.536 1058.41 199.152C1052.61 201.717 1046.18 203 1039.13 203ZM1036.54 135.992C1032.05 135.992 1028.39 137.451 1025.57 140.368C1022.8 143.286 1021.02 147.462 1020.24 152.895H1051.74V151.159C1051.64 146.33 1050.28 142.607 1047.67 139.991C1045.06 137.325 1041.35 135.992 1036.54 135.992Z" fill="#3D895B"/>
</svg>
