<svg width="183" height="56" viewBox="0 0 183 56" fill="none" xmlns="http://www.w3.org/2000/svg">
<path d="M64.7773 37V17.0938H70.9023C72.6523 17.0938 74.2155 17.4902 75.5918 18.2832C76.9772 19.0671 78.0573 20.1882 78.832 21.6465C79.6068 23.0957 79.9941 24.7454 79.9941 26.5957V27.5117C79.9941 29.362 79.6113 31.0072 78.8457 32.4473C78.0892 33.8874 77.0182 35.0039 75.6328 35.7969C74.2474 36.5898 72.6842 36.9909 70.9434 37H64.7773ZM68.8789 20.416V33.7051H70.8613C72.4655 33.7051 73.6914 33.181 74.5391 32.1328C75.3867 31.0846 75.8197 29.5853 75.8379 27.6348V26.582C75.8379 24.5586 75.4186 23.0273 74.5801 21.9883C73.7415 20.9401 72.5156 20.416 70.9023 20.416H68.8789ZM86.8984 37H82.9336V22.207H86.8984V37ZM82.7012 18.3789C82.7012 17.7865 82.8971 17.2988 83.2891 16.916C83.6901 16.5332 84.2324 16.3418 84.916 16.3418C85.5905 16.3418 86.1283 16.5332 86.5293 16.916C86.9303 17.2988 87.1309 17.7865 87.1309 18.3789C87.1309 18.9805 86.9258 19.4727 86.5156 19.8555C86.1146 20.2383 85.5814 20.4297 84.916 20.4297C84.2507 20.4297 83.7129 20.2383 83.3027 19.8555C82.9017 19.4727 82.7012 18.9805 82.7012 18.3789ZM98.7383 37C98.556 36.6445 98.4238 36.2025 98.3418 35.6738C97.3848 36.7402 96.1406 37.2734 94.6094 37.2734C93.1602 37.2734 91.957 36.8542 91 36.0156C90.0521 35.1771 89.5781 34.1198 89.5781 32.8438C89.5781 31.276 90.1569 30.0729 91.3145 29.2344C92.4811 28.3958 94.1628 27.972 96.3594 27.9629H98.1777V27.1152C98.1777 26.4316 98 25.8848 97.6445 25.4746C97.2982 25.0645 96.7467 24.8594 95.9902 24.8594C95.3249 24.8594 94.8008 25.0189 94.418 25.3379C94.0443 25.6569 93.8574 26.0944 93.8574 26.6504H89.9062C89.9062 25.7936 90.1706 25.0007 90.6992 24.2715C91.2279 23.5423 91.9753 22.9727 92.9414 22.5625C93.9076 22.1432 94.9922 21.9336 96.1953 21.9336C98.0182 21.9336 99.4629 22.3939 100.529 23.3145C101.605 24.2259 102.143 25.5111 102.143 27.1699V33.582C102.152 34.9857 102.348 36.0475 102.73 36.7676V37H98.7383ZM95.4707 34.252C96.054 34.252 96.5918 34.1243 97.084 33.8691C97.5762 33.6048 97.9408 33.2539 98.1777 32.8164V30.2734H96.7012C94.7233 30.2734 93.6706 30.957 93.543 32.3242L93.5293 32.5566C93.5293 33.0488 93.7025 33.4544 94.0488 33.7734C94.3952 34.0924 94.8691 34.252 95.4707 34.252ZM113.49 25.9121C112.952 25.8392 112.479 25.8027 112.068 25.8027C110.574 25.8027 109.594 26.3086 109.129 27.3203V37H105.178V22.207H108.91L109.02 23.9707C109.812 22.6126 110.911 21.9336 112.314 21.9336C112.752 21.9336 113.162 21.9928 113.545 22.1113L113.49 25.9121ZM121.174 31.4082L123.908 22.207H128.146L122.199 39.2969L121.871 40.0762C120.987 42.0085 119.529 42.9746 117.496 42.9746C116.922 42.9746 116.339 42.888 115.746 42.7148V39.7207L116.348 39.7344C117.095 39.7344 117.651 39.6204 118.016 39.3926C118.389 39.1647 118.681 38.7865 118.891 38.2578L119.355 37.041L114.174 22.207H118.426L121.174 31.4082ZM136.938 37V17.0938H143.91C146.326 17.0938 148.158 17.5586 149.406 18.4883C150.655 19.4089 151.279 20.7624 151.279 22.5488C151.279 23.5241 151.029 24.3854 150.527 25.1328C150.026 25.8711 149.329 26.4134 148.436 26.7598C149.456 27.015 150.258 27.5299 150.842 28.3047C151.434 29.0794 151.73 30.0273 151.73 31.1484C151.73 33.0625 151.12 34.5117 149.898 35.4961C148.677 36.4805 146.936 36.9818 144.676 37H136.938ZM141.039 28.332V33.7051H144.553C145.519 33.7051 146.271 33.4772 146.809 33.0215C147.355 32.5566 147.629 31.9186 147.629 31.1074C147.629 29.2845 146.686 28.3594 144.799 28.332H141.039ZM141.039 25.4336H144.074C146.143 25.3971 147.178 24.5723 147.178 22.959C147.178 22.0566 146.913 21.4095 146.385 21.0176C145.865 20.6165 145.04 20.416 143.91 20.416H141.039V25.4336ZM153.945 29.4668C153.945 27.9993 154.228 26.6914 154.793 25.543C155.358 24.3945 156.169 23.5059 157.227 22.877C158.293 22.248 159.528 21.9336 160.932 21.9336C162.928 21.9336 164.555 22.5443 165.812 23.7656C167.079 24.987 167.786 26.6458 167.932 28.7422L167.959 29.7539C167.959 32.0234 167.326 33.8464 166.059 35.2227C164.792 36.5898 163.092 37.2734 160.959 37.2734C158.826 37.2734 157.122 36.5898 155.846 35.2227C154.579 33.8555 153.945 31.9961 153.945 29.6445V29.4668ZM157.896 29.7539C157.896 31.1576 158.161 32.2331 158.689 32.9805C159.218 33.7188 159.975 34.0879 160.959 34.0879C161.916 34.0879 162.663 33.7233 163.201 32.9941C163.739 32.2559 164.008 31.0801 164.008 29.4668C164.008 28.0905 163.739 27.0241 163.201 26.2676C162.663 25.5111 161.907 25.1328 160.932 25.1328C159.965 25.1328 159.218 25.5111 158.689 26.2676C158.161 27.015 157.896 28.1771 157.896 29.7539ZM175.725 26.623L178.213 22.207H182.438L178.227 29.4531L182.615 37H178.377L175.738 32.3516L173.113 37H168.861L173.25 29.4531L169.053 22.207H173.291L175.725 26.623Z" fill="#449966"/>
<path d="M33.9642 12.741L51 22.261L48.9958 41.301L33.9642 33.2842V12.741Z" fill="#449966"/>
<path d="M4.90308 23.2631L32.962 11.2379L33.9641 32.7831L6.90729 45.3094L4.90308 23.2631Z" fill="#2E8350"/>
<path d="M29.8425 0.93562C29.925 1.15892 30.0289 1.43096 30.1555 1.74623C30.5364 2.6944 31.1235 4.03473 31.9526 5.61661C33.6096 8.7783 36.2396 12.9174 40.1324 16.8187C43.8594 20.554 45.7168 24.4473 46.6437 27.3985C47.1074 28.8748 47.338 30.1152 47.4527 30.9807C47.4976 31.3199 47.5247 31.6012 47.541 31.8162L18.3406 43.9525C18.304 43.685 18.2589 43.3684 18.2047 43.0094C18.0241 41.8125 17.742 40.1423 17.3356 38.2467C16.5264 34.4716 15.2116 29.7386 13.1906 26.0755C11.1913 22.4518 8.02419 18.2105 5.37789 14.896C4.0509 13.234 2.84766 11.7961 1.97601 10.7735C1.72807 10.4826 1.50688 10.2252 1.31723 10.0058L29.8425 0.93562Z" fill="#F8EBCF" stroke="#449966" stroke-width="1.5"/>
<path fill-rule="evenodd" clip-rule="evenodd" d="M30.2317 9.40634L10.9021 15.5981L6.77856 11.2889L28.747 6.33654L30.2317 9.40634Z" fill="#449966"/>
<path fill-rule="evenodd" clip-rule="evenodd" d="M35.0035 14.2474L15.168 21.3222L14.6704 18.1064L33.084 11.0316L35.0035 14.2474Z" fill="#449966"/>
<path fill-rule="evenodd" clip-rule="evenodd" d="M37.8472 19.0068L16.6945 27.3685L16.7757 23.999L35.4726 17.1081L37.8472 19.0068Z" fill="#449966"/>
<path fill-rule="evenodd" clip-rule="evenodd" d="M41.9707 23.8305L21.993 32.5775L23.2016 27.4966L40.6199 21.4508L41.9707 23.8305Z" fill="#449966"/>
<path fill-rule="evenodd" clip-rule="evenodd" d="M44.5749 30.036L22.2219 38.1381L22.2219 35.5011L43.9613 26.1459L44.5749 30.036Z" fill="#449966"/>
<path d="M4.90308 23.2632L22.941 34.2863L21.9389 55.3305L6.90729 45.3095L4.90308 23.2632Z" fill="url(#paint0_linear)"/>
<path d="M22.9411 34.2863L51 22.261L48.9958 41.301L21.939 55.3305L22.9411 34.2863Z" fill="url(#paint1_linear)"/>
<defs>
<linearGradient id="paint0_linear" x1="21.5" y1="32" x2="13" y2="45.5" gradientUnits="userSpaceOnUse">
<stop stop-color="#449966"/>
<stop offset="0.364483" stop-color="#449966"/>
<stop offset="0.364583" stop-color="#2E8350"/>
<stop offset="0.666667" stop-color="#348856"/>
<stop offset="0.744692" stop-color="#2E8350"/>
<stop offset="0.744792" stop-color="#449966"/>
<stop offset="1" stop-color="#449966"/>
</linearGradient>
<linearGradient id="paint1_linear" x1="37" y1="22.5" x2="47.5" y2="46" gradientUnits="userSpaceOnUse">
<stop stop-color="#2E8350"/>
<stop offset="0.378675" stop-color="#2E8350"/>
<stop offset="0.380134" stop-color="#1C743F"/>
<stop offset="0.619721" stop-color="#1C743F"/>
<stop offset="0.619828" stop-color="#2E8350"/>
<stop offset="1" stop-color="#2E8350"/>
</linearGradient>
</defs>
</svg>
