<svg width="28" height="28" viewBox="0 0 28 28" fill="none" xmlns="http://www.w3.org/2000/svg">
<path d="M14 16.4C15.3255 16.4 16.4 15.3255 16.4 14C16.4 12.6745 15.3255 11.6 14 11.6C12.6745 11.6 11.6 12.6745 11.6 14C11.6 15.3255 12.6745 16.4 14 16.4Z" fill="#449966"/>
<path d="M11.75 6.5L10.3775 8H8C7.175 8 6.5 8.675 6.5 9.5V18.5C6.5 19.325 7.175 20 8 20H20C20.825 20 21.5 19.325 21.5 18.5V9.5C21.5 8.675 20.825 8 20 8H17.6225L16.25 6.5H11.75ZM14 17.75C11.93 17.75 10.25 16.07 10.25 14C10.25 11.93 11.93 10.25 14 10.25C16.07 10.25 17.75 11.93 17.75 14C17.75 16.07 16.07 17.75 14 17.75Z" fill="#449966"/>
<path d="M1.5 0V10.5" stroke="#449966" stroke-width="3"/>
<path d="M26 27.5L26 17" stroke="#449966" stroke-width="3"/>
<path d="M0 26L10.5 26" stroke="#449966" stroke-width="3"/>
<path d="M27.5 1.5L17 1.5" stroke="#449966" stroke-width="3"/>
<path d="M10.5 1.5L0 1.5" stroke="#449966" stroke-width="3"/>
<path d="M17 26L27.5 26" stroke="#449966" stroke-width="3"/>
<path d="M1.5 17L1.5 27.5" stroke="#449966" stroke-width="3"/>
<path d="M26 10.5L26 0" stroke="#449966" stroke-width="3"/>
</svg>
