<svg width="30" height="34" viewBox="0 0 30 34" fill="none" xmlns="http://www.w3.org/2000/svg">
<path d="M14.2285 0.935338C14.6285 0.450385 15.3715 0.450385 15.7715 0.935338L22.3107 8.86372C22.8486 9.51595 22.3847 10.5 21.5392 10.5H8.46079C7.61532 10.5 7.15137 9.51596 7.68933 8.86372L14.2285 0.935338Z" fill="#449966"/>
<path d="M14.232 4.92091C14.6318 4.44152 15.3682 4.44152 15.768 4.9209L24.8903 15.8595C25.4334 16.5108 24.9703 17.5 24.1223 17.5H5.87772C5.02971 17.5 4.56662 16.5108 5.10974 15.8595L14.232 4.92091Z" fill="#449966"/>
<path d="M14.2285 9.93534C14.6285 9.45038 15.3715 9.45038 15.7715 9.93534L26.6408 23.1137C27.1788 23.766 26.7148 24.75 25.8693 24.75H4.13066C3.28519 24.75 2.82124 23.766 3.3592 23.1137L14.2285 9.93534Z" fill="#449966"/>
<rect x="11" y="22" width="8" height="12" rx="1" fill="#449966"/>
</svg>
