<svg width="55" height="50" viewBox="0 0 55 50" fill="none" xmlns="http://www.w3.org/2000/svg">
<g clip-path="url(#clip0)">
<path d="M19.5112 0H22.2877C23.1398 0.361441 23.9141 0.880077 24.5692 1.52807C26.3895 3.37753 28.3773 5.0588 30.508 6.55088C31.2867 7.16461 32.1946 7.59857 33.1654 7.82093C34.1361 8.0433 35.1449 8.04843 36.1179 7.83597C37.9118 7.38618 39.6707 6.81014 41.3812 6.11228C47.0925 4.11579 52.9104 8.46491 54.2018 12.9079C55.4059 16.9445 55.2449 21.2583 53.7432 25.1965C52.9611 27.3232 52.7895 29.6217 53.2472 31.8386C53.8243 34.5865 54.1483 37.3804 54.2151 40.186C54.2516 44.9588 51.6883 48.0605 46.9618 49.0763C45.0184 49.5017 43.01 49.5523 41.047 49.2254C37.5542 48.6333 34.0693 48.8904 30.5728 49.0254C28.8929 49.1196 27.2229 49.3425 25.5779 49.6921C22.7143 50.357 19.7049 50.0065 17.0768 48.7018C15.5146 47.9231 13.8283 47.4157 12.0917 47.2018C11.1442 47.0597 10.195 46.9289 9.24759 46.7737C8.30719 46.6683 7.39853 46.3743 6.57736 45.9099C5.75618 45.4454 5.03982 44.8203 4.47221 44.0728C3.03146 42.1644 2.40924 39.7732 2.73999 37.4158C3.14164 35.3316 3.27483 33.2057 3.13638 31.0886C2.807 28.6621 2.08942 26.3026 1.01043 24.0982C-0.965311 19.8377 -0.196521 17.05 4.65441 15.9456C6.61064 15.4271 8.44679 14.5401 10.0617 13.3333C12.0535 11.9588 13.5893 10.2737 13.6879 7.69474C13.7279 7.36993 13.7872 7.04773 13.8657 6.72983C14.398 3.39211 16.0991 0.996491 19.5112 0Z" fill="#449966"/>
</g>
<defs>
<clipPath id="clip0">
<rect width="55" height="50" fill="white"/>
</clipPath>
</defs>
</svg>
