{
  "asset": {
    "version": "2.0",
    "generator": "THREE.GLTFExporter"
  },
  "scenes": [
    {
      "name": "Scene",
      "nodes": [
        3
      ]
    }
  ],
  "scene": 0,
  "nodes": [
    {
      "name": "beer",
      "mesh": 0
    },
    {
      "name": "beer_1",
      "mesh": 1
    },
    {
      "name": "beer_2",
      "mesh": 2
    },
    {
      "matrix": [
        0.4370087683200836,
        0,
        0,
        0,
        0,
        -5.871599838542686e-8,
        0.43700875336190764,
        0,
        0,
        -0.43700875336190764,
        -5.871599838542686e-8,
        0,
        0,
        2.4245080947875977,
        0,
        1
      ],
      "name": "can",
      "extras": {
        "name": "body"
      },
      "children": [
        0,
        1,
        2
      ]
    }
  ],
  "bufferViews": [
    {
      "buffer": 0,
      "byteOffset": 0,
      "byteLength": 2724,
      "target": 34962,
      "byteStride": 12
    },
    {
      "buffer": 0,
      "byteOffset": 2724,
      "byteLength": 2724,
      "target": 34962,
      "byteStride": 12
    },
    {
      "buffer": 0,
      "byteOffset": 5448,
      "byteLength": 1816,
      "target": 34962,
      "byteStride": 8
    },
    {
      "buffer": 0,
      "byteOffset": 7264,
      "byteLength": 2000,
      "target": 34963
    },
    {
      "buffer": 0,
      "byteOffset": 9264,
      "byteLength": 480,
      "target": 34962,
      "byteStride": 12
    },
    {
      "buffer": 0,
      "byteOffset": 9744,
      "byteLength": 480,
      "target": 34962,
      "byteStride": 12
    },
    {
      "buffer": 0,
      "byteOffset": 10224,
      "byteLength": 320,
      "target": 34962,
      "byteStride": 8
    },
    {
      "buffer": 0,
      "byteOffset": 10544,
      "byteLength": 240,
      "target": 34963
    },
    {
      "buffer": 0,
      "byteOffset": 10784,
      "byteLength": 7284,
      "target": 34962,
      "byteStride": 12
    },
    {
      "buffer": 0,
      "byteOffset": 18068,
      "byteLength": 7284,
      "target": 34962,
      "byteStride": 12
    },
    {
      "buffer": 0,
      "byteOffset": 25352,
      "byteLength": 4856,
      "target": 34962,
      "byteStride": 8
    },
    {
      "buffer": 0,
      "byteOffset": 30208,
      "byteLength": 3500,
      "target": 34963
    }
  ],
  "buffers": [
    {
      "byteLength": 33708,
      "uri": "data:application/octet-stream;base64,"
    }
  ],
  "accessors": [
    {
      "bufferView": 0,
      "componentType": 5126,
      "count": 227,
      "max": [
        2.6733694076538086,
        2.6750051975250244,
        4.732968807220459
      ],
      "min": [
        -2.6750078201293945,
        -2.672860860824585,
        -5.085812568664551
      ],
      "type": "VEC3"
    },
    {
      "bufferView": 1,
      "componentType": 5126,
      "count": 227,
      "max": [
        0.9888757467269897,
        0.9882380962371826,
        0.992388904094696
      ],
      "min": [
        -0.9889232516288757,
        -0.9888159036636353,
        -0.47635865211486816
      ],
      "type": "VEC3"
    },
    {
      "bufferView": 2,
      "componentType": 5126,
      "count": 227,
      "max": [
        0.625,
        0.9959080219268799
      ],
      "min": [
        0.3647814393043518,
        0.012939274311065674
      ],
      "type": "VEC2"
    },
    {
      "bufferView": 3,
      "componentType": 5123,
      "count": 999,
      "max": [
        226
      ],
      "min": [
        0
      ],
      "type": "SCALAR"
    },
    {
      "bufferView": 4,
      "componentType": 5126,
      "count": 40,
      "max": [
        2.672269105911255,
        2.6738438606262207,
        1.9651377201080322
      ],
      "min": [
        -2.673828601837158,
        -2.6720058917999268,
        -2.644399642944336
      ],
      "type": "VEC3"
    },
    {
      "bufferView": 5,
      "componentType": 5126,
      "count": 40,
      "max": [
        0.9888781309127808,
        0.9882345795631409,
        0.00878959707915783
      ],
      "min": [
        -0.9889249205589294,
        -0.9888172149658203,
        -0.007468407042324543
      ],
      "type": "VEC3"
    },
    {
      "bufferView": 6,
      "componentType": 5126,
      "count": 40,
      "max": [
        0.6124999523162842,
        0.551761269569397
      ],
      "min": [
        0.38749998807907104,
        0.38194429874420166
      ],
      "type": "VEC2"
    },
    {
      "bufferView": 7,
      "componentType": 5123,
      "count": 120,
      "max": [
        39
      ],
      "min": [
        0
      ],
      "type": "SCALAR"
    },
    {
      "bufferView": 8,
      "componentType": 5126,
      "count": 607,
      "max": [
        2.5789828300476074,
        2.580111265182495,
        5.546072006225586
      ],
      "min": [
        -2.57987380027771,
        -2.578491449356079,
        -5.320592880249023
      ],
      "type": "VEC3"
    },
    {
      "bufferView": 9,
      "componentType": 5126,
      "count": 607,
      "max": [
        0.9955903887748718,
        0.9858994483947754,
        0.9999998807907104
      ],
      "min": [
        -0.9956403970718384,
        -0.9940357208251953,
        -0.9999884366989136
      ],
      "type": "VEC3"
    },
    {
      "bufferView": 10,
      "componentType": 5126,
      "count": 607,
      "max": [
        0.9999129772186279,
        1
      ],
      "min": [
        0.00004400000034365803,
        -0.7143909931182861
      ],
      "type": "VEC2"
    },
    {
      "bufferView": 11,
      "componentType": 5123,
      "count": 1749,
      "max": [
        606
      ],
      "min": [
        0
      ],
      "type": "SCALAR"
    }
  ],
  "materials": [
    {
      "pbrMetallicRoughness": {
        "baseColorFactor": [
          1,
          0.3868987560272217,
          0.012292562983930111,
          1
        ],
        "metallicFactor": 0,
        "roughnessFactor": 0.5
      },
      "doubleSided": true,
      "name": "color-1"
    },
    {
      "pbrMetallicRoughness": {
        "baseColorFactor": [
          1,
          0.7417715787887573,
          0.1759236752986908,
          1
        ],
        "metallicFactor": 0,
        "roughnessFactor": 0.4000000059604645
      },
      "doubleSided": true,
      "name": "color-2"
    },
    {
      "pbrMetallicRoughness": {
        "baseColorFactor": [
          0.2853220999240875,
          0.2853220999240875,
          0.2853220999240875,
          1
        ],
        "metallicFactor": 0,
        "roughnessFactor": 0.5
      },
      "doubleSided": true,
      "name": "color-3"
    }
  ],
  "meshes": [
    {
      "primitives": [
        {
          "mode": 4,
          "attributes": {
            "POSITION": 0,
            "NORMAL": 1,
            "TEXCOORD_0": 2
          },
          "indices": 3,
          "material": 0
        }
      ]
    },
    {
      "primitives": [
        {
          "mode": 4,
          "attributes": {
            "POSITION": 4,
            "NORMAL": 5,
            "TEXCOORD_0": 6
          },
          "indices": 7,
          "material": 1
        }
      ]
    },
    {
      "primitives": [
        {
          "mode": 4,
          "attributes": {
            "POSITION": 8,
            "NORMAL": 9,
            "TEXCOORD_0": 10
          },
          "indices": 11,
          "material": 2
        }
      ]
    }
  ]
}