{
  "asset": {
    "version": "2.0",
    "generator": "THREE.GLTFExporter"
  },
  "scenes": [
    {
      "name": "Scene",
      "nodes": [
        4
      ]
    }
  ],
  "scene": 0,
  "nodes": [
    {
      "name": "beer_1",
      "mesh": 0
    },
    {
      "name": "beer_2",
      "mesh": 1
    },
    {
      "name": "beer_3",
      "mesh": 2
    },
    {
      "matrix": [
        1,
        0,
        0,
        0,
        0,
        -1.3435885648505064e-7,
        0.9999999657714511,
        0,
        0,
        -0.9999999657714511,
        -1.3435885648505064e-7,
        0,
        0,
        9.17595100402832,
        0,
        1
      ],
      "name": "beer",
      "extras": {
        "name": "beer"
      },
      "children": [
        0,
        1,
        2
      ]
    },
    {
      "name": "can.glb",
      "children": [
        3
      ]
    }
  ],
  "bufferViews": [
    {
      "buffer": 0,
      "byteOffset": 0,
      "byteLength": 16464,
      "target": 34962,
      "byteStride": 12
    },
    {
      "buffer": 0,
      "byteOffset": 16464,
      "byteLength": 16464,
      "target": 34962,
      "byteStride": 12
    },
    {
      "buffer": 0,
      "byteOffset": 32928,
      "byteLength": 10976,
      "target": 34962,
      "byteStride": 8
    },
    {
      "buffer": 0,
      "byteOffset": 43904,
      "byteLength": 13152,
      "target": 34963
    },
    {
      "buffer": 0,
      "byteOffset": 57056,
      "byteLength": 1476,
      "target": 34962,
      "byteStride": 12
    },
    {
      "buffer": 0,
      "byteOffset": 58532,
      "byteLength": 1476,
      "target": 34962,
      "byteStride": 12
    },
    {
      "buffer": 0,
      "byteOffset": 60008,
      "byteLength": 984,
      "target": 34962,
      "byteStride": 8
    },
    {
      "buffer": 0,
      "byteOffset": 60992,
      "byteLength": 960,
      "target": 34963
    },
    {
      "buffer": 0,
      "byteOffset": 61952,
      "byteLength": 55584,
      "target": 34962,
      "byteStride": 12
    },
    {
      "buffer": 0,
      "byteOffset": 117536,
      "byteLength": 55584,
      "target": 34962,
      "byteStride": 12
    },
    {
      "buffer": 0,
      "byteOffset": 173120,
      "byteLength": 37056,
      "target": 34962,
      "byteStride": 8
    },
    {
      "buffer": 0,
      "byteOffset": 210176,
      "byteLength": 46392,
      "target": 34963
    }
  ],
  "buffers": [
    {
      "byteLength": 256568,
      "uri": "data:application/octet-stream;base64,"
    }
  ],
  "accessors": [
    {
      "bufferView": 0,
      "componentType": 5126,
      "count": 1372,
      "max": [
        2.6832969188690186,
        2.7673890590667725,
        8.318129539489746
      ],
      "min": [
        -2.7407658100128174,
        -2.656667947769165,
        -1.435013771057129
      ],
      "type": "VEC3"
    },
    {
      "bufferView": 1,
      "componentType": 5126,
      "count": 1372,
      "max": [
        0.9999998807907104,
        0.9999998807907104,
        1
      ],
      "min": [
        -0.9999998807907104,
        -0.9999998211860657,
        -0.7524596452713013
      ],
      "type": "VEC3"
    },
    {
      "bufferView": 2,
      "componentType": 5126,
      "count": 1372,
      "max": [
        0.625,
        0.9960370063781738
      ],
      "min": [
        0.375,
        0.01280301809310913
      ],
      "type": "VEC2"
    },
    {
      "bufferView": 3,
      "componentType": 5123,
      "count": 6576,
      "max": [
        1371
      ],
      "min": [
        0
      ],
      "type": "SCALAR"
    },
    {
      "bufferView": 4,
      "componentType": 5126,
      "count": 123,
      "max": [
        2.683293104171753,
        2.7673890590667725,
        6.244983673095703
      ],
      "min": [
        -2.7407658100128174,
        -2.656667947769165,
        2.0349714756011963
      ],
      "type": "VEC3"
    },
    {
      "bufferView": 5,
      "componentType": 5126,
      "count": 123,
      "max": [
        0.9999998807907104,
        0.9999998807907104,
        0.004132254980504513
      ],
      "min": [
        -0.9999998807907104,
        -0.9999998807907104,
        0
      ],
      "type": "VEC3"
    },
    {
      "bufferView": 6,
      "componentType": 5126,
      "count": 123,
      "max": [
        0.625,
        0.5737780332565308
      ],
      "min": [
        0.375,
        0.42152297496795654
      ],
      "type": "VEC2"
    },
    {
      "bufferView": 7,
      "componentType": 5123,
      "count": 480,
      "max": [
        122
      ],
      "min": [
        0
      ],
      "type": "SCALAR"
    },
    {
      "bufferView": 8,
      "componentType": 5126,
      "count": 4632,
      "max": [
        2.5822131633758545,
        2.6663148403167725,
        9.156095504760742
      ],
      "min": [
        -2.639683961868286,
        -2.5555784702301025,
        -1.7546844482421875
      ],
      "type": "VEC3"
    },
    {
      "bufferView": 9,
      "componentType": 5126,
      "count": 4632,
      "max": [
        1,
        1,
        1
      ],
      "min": [
        -1,
        -1,
        -1
      ],
      "type": "VEC3"
    },
    {
      "bufferView": 10,
      "componentType": 5126,
      "count": 4632,
      "max": [
        0.9999729990959167,
        1
      ],
      "min": [
        0.00004400000034365803,
        -0.7144030332565308
      ],
      "type": "VEC2"
    },
    {
      "bufferView": 11,
      "componentType": 5123,
      "count": 23196,
      "max": [
        4631
      ],
      "min": [
        0
      ],
      "type": "SCALAR"
    }
  ],
  "materials": [
    {
      "pbrMetallicRoughness": {
        "baseColorFactor": [
          0.1062350943684578,
          0.3698467016220093,
          0.006770189385861158,
          1
        ],
        "metallicFactor": 0,
        "roughnessFactor": 0.5
      },
      "doubleSided": true,
      "name": "color-1"
    },
    {
      "pbrMetallicRoughness": {
        "baseColorFactor": [
          1,
          0.8815637826919556,
          0.3669334948062897,
          1
        ],
        "metallicFactor": 0,
        "roughnessFactor": 0.4000000059604645
      },
      "doubleSided": true,
      "name": "color-2"
    },
    {
      "pbrMetallicRoughness": {
        "baseColorFactor": [
          0.2853220999240875,
          0.2853220999240875,
          0.2853220999240875,
          1
        ],
        "metallicFactor": 0,
        "roughnessFactor": 0.5
      },
      "doubleSided": true,
      "name": ".002"
    }
  ],
  "meshes": [
    {
      "primitives": [
        {
          "mode": 4,
          "attributes": {
            "POSITION": 0,
            "NORMAL": 1,
            "TEXCOORD_0": 2
          },
          "indices": 3,
          "material": 0
        }
      ]
    },
    {
      "primitives": [
        {
          "mode": 4,
          "attributes": {
            "POSITION": 4,
            "NORMAL": 5,
            "TEXCOORD_0": 6
          },
          "indices": 7,
          "material": 1
        }
      ]
    },
    {
      "primitives": [
        {
          "mode": 4,
          "attributes": {
            "POSITION": 8,
            "NORMAL": 9,
            "TEXCOORD_0": 10
          },
          "indices": 11,
          "material": 2
        }
      ]
    }
  ]
}