{
  "asset": {
    "version": "2.0",
    "generator": "THREE.GLTFExporter"
  },
  "scenes": [
    {
      "name": "Scene",
      "nodes": [
        1,
        3,
        8
      ]
    }
  ],
  "scene": 0,
  "nodes": [
    {
      "matrix": [
        1,
        0,
        0,
        0,
        0,
        -1.3435885648505064e-7,
        0.9999999657714511,
        0,
        0,
        -0.9999999657714511,
        -1.3435885648505064e-7,
        0,
        0,
        9.17595100402832,
        0,
        1
      ],
      "name": "beer",
      "extras": {
        "name": "beer"
      }
    },
    {
      "name": "beer.glb",
      "children": [
        0
      ]
    },
    {
      "matrix": [
        1,
        0,
        0,
        0,
        0,
        -1.3435885648505064e-7,
        0.9999999657714511,
        0,
        0,
        -0.9999999657714511,
        -1.3435885648505064e-7,
        0,
        0,
        9.17595100402832,
        0,
        1
      ],
      "name": "beer",
      "extras": {
        "name": "beer"
      }
    },
    {
      "name": "beer.glb",
      "children": [
        2
      ]
    },
    {
      "name": "beer_1",
      "mesh": 0
    },
    {
      "name": "beer_2",
      "mesh": 1
    },
    {
      "name": "beer_3",
      "mesh": 2
    },
    {
      "matrix": [
        1,
        0,
        0,
        0,
        0,
        -1.3435885648505064e-7,
        0.9999999657714511,
        0,
        0,
        -0.9999999657714511,
        -1.3435885648505064e-7,
        0,
        0,
        9.17595100402832,
        0,
        1
      ],
      "name": "beer",
      "extras": {
        "name": "beer"
      },
      "children": [
        4,
        5,
        6
      ]
    },
    {
      "name": "beer.glb",
      "children": [
        7
      ]
    }
  ],
  "bufferViews": [
    {
      "buffer": 0,
      "byteOffset": 0,
      "byteLength": 23544,
      "target": 34962,
      "byteStride": 12
    },
    {
      "buffer": 0,
      "byteOffset": 23544,
      "byteLength": 23544,
      "target": 34962,
      "byteStride": 12
    },
    {
      "buffer": 0,
      "byteOffset": 47088,
      "byteLength": 15696,
      "target": 34962,
      "byteStride": 8
    },
    {
      "buffer": 0,
      "byteOffset": 62784,
      "byteLength": 18912,
      "target": 34963
    },
    {
      "buffer": 0,
      "byteOffset": 81696,
      "byteLength": 1476,
      "target": 34962,
      "byteStride": 12
    },
    {
      "buffer": 0,
      "byteOffset": 83172,
      "byteLength": 1476,
      "target": 34962,
      "byteStride": 12
    },
    {
      "buffer": 0,
      "byteOffset": 84648,
      "byteLength": 984,
      "target": 34962,
      "byteStride": 8
    },
    {
      "buffer": 0,
      "byteOffset": 85632,
      "byteLength": 960,
      "target": 34963
    },
    {
      "buffer": 0,
      "byteOffset": 86592,
      "byteLength": 49548,
      "target": 34962,
      "byteStride": 12
    },
    {
      "buffer": 0,
      "byteOffset": 136140,
      "byteLength": 49548,
      "target": 34962,
      "byteStride": 12
    },
    {
      "buffer": 0,
      "byteOffset": 185688,
      "byteLength": 33032,
      "target": 34962,
      "byteStride": 8
    },
    {
      "buffer": 0,
      "byteOffset": 218720,
      "byteLength": 40632,
      "target": 34963
    }
  ],
  "buffers": [
    {
      "byteLength": 259352,
      "uri": "data:application/octet-stream;base64,"
    }
  ],
  "accessors": [
    {
      "bufferView": 0,
      "componentType": 5126,
      "count": 1962,
      "max": [
        2.6832969188690186,
        2.7673890590667725,
        8.318129539489746
      ],
      "min": [
        -2.7407658100128174,
        -2.656667947769165,
        -1.4529809951782227
      ],
      "type": "VEC3"
    },
    {
      "bufferView": 1,
      "componentType": 5126,
      "count": 1962,
      "max": [
        1,
        1,
        1
      ],
      "min": [
        -1,
        -1,
        -1
      ],
      "type": "VEC3"
    },
    {
      "bufferView": 2,
      "componentType": 5126,
      "count": 1962,
      "max": [
        0.9443140029907227,
        0.9960370063781738
      ],
      "min": [
        0.055681001394987106,
        -0.10611605644226074
      ],
      "type": "VEC2"
    },
    {
      "bufferView": 3,
      "componentType": 5123,
      "count": 9456,
      "max": [
        1961
      ],
      "min": [
        0
      ],
      "type": "SCALAR"
    },
    {
      "bufferView": 4,
      "componentType": 5126,
      "count": 123,
      "max": [
        2.683293104171753,
        2.7673890590667725,
        6.244983673095703
      ],
      "min": [
        -2.7407658100128174,
        -2.656667947769165,
        2.0349714756011963
      ],
      "type": "VEC3"
    },
    {
      "bufferView": 5,
      "componentType": 5126,
      "count": 123,
      "max": [
        0.9999998807907104,
        0.9999998807907104,
        0.004132254980504513
      ],
      "min": [
        -0.9999998807907104,
        -0.9999998807907104,
        0
      ],
      "type": "VEC3"
    },
    {
      "bufferView": 6,
      "componentType": 5126,
      "count": 123,
      "max": [
        0.625,
        0.5737780332565308
      ],
      "min": [
        0.375,
        0.42152297496795654
      ],
      "type": "VEC2"
    },
    {
      "bufferView": 7,
      "componentType": 5123,
      "count": 480,
      "max": [
        122
      ],
      "min": [
        0
      ],
      "type": "SCALAR"
    },
    {
      "bufferView": 8,
      "componentType": 5126,
      "count": 4129,
      "max": [
        2.5822131633758545,
        2.6663148403167725,
        9.156095504760742
      ],
      "min": [
        -2.639683961868286,
        -2.5555784702301025,
        -1.7546844482421875
      ],
      "type": "VEC3"
    },
    {
      "bufferView": 9,
      "componentType": 5126,
      "count": 4129,
      "max": [
        1,
        1,
        1
      ],
      "min": [
        -1,
        -1,
        -1
      ],
      "type": "VEC3"
    },
    {
      "bufferView": 10,
      "componentType": 5126,
      "count": 4129,
      "max": [
        0.9999729990959167,
        1
      ],
      "min": [
        0.00004400000034365803,
        -0.7144030332565308
      ],
      "type": "VEC2"
    },
    {
      "bufferView": 11,
      "componentType": 5123,
      "count": 20316,
      "max": [
        4128
      ],
      "min": [
        0
      ],
      "type": "SCALAR"
    }
  ],
  "materials": [
    {
      "pbrMetallicRoughness": {
        "baseColorFactor": [
          0.1062350943684578,
          0.3698467016220093,
          0.006770189385861158,
          1
        ],
        "metallicFactor": 0,
        "roughnessFactor": 0.5
      },
      "doubleSided": true,
      "name": "color-1"
    },
    {
      "pbrMetallicRoughness": {
        "baseColorFactor": [
          0.9490196078431372,
          0.6235294117647059,
          0.17254901960784313,
          1
        ],
        "metallicFactor": 0,
        "roughnessFactor": 0
      },
      "doubleSided": true,
      "name": "color-2"
    },
    {
      "pbrMetallicRoughness": {
        "baseColorFactor": [
          0.2853220999240875,
          0.2853220999240875,
          0.2853220999240875,
          1
        ],
        "metallicFactor": 0,
        "roughnessFactor": 0.5
      },
      "doubleSided": true,
      "name": ".002"
    }
  ],
  "meshes": [
    {
      "primitives": [
        {
          "mode": 4,
          "attributes": {
            "POSITION": 0,
            "NORMAL": 1,
            "TEXCOORD_0": 2
          },
          "indices": 3,
          "material": 0
        }
      ]
    },
    {
      "primitives": [
        {
          "mode": 4,
          "attributes": {
            "POSITION": 4,
            "NORMAL": 5,
            "TEXCOORD_0": 6
          },
          "indices": 7,
          "material": 1
        }
      ]
    },
    {
      "primitives": [
        {
          "mode": 4,
          "attributes": {
            "POSITION": 8,
            "NORMAL": 9,
            "TEXCOORD_0": 10
          },
          "indices": 11,
          "material": 2
        }
      ]
    }
  ]
}