{
  "asset": {
    "version": "2.0",
    "generator": "THREE.GLTFExporter"
  },
  "scenes": [
    {
      "name": "Scene",
      "nodes": [
        3
      ]
    }
  ],
  "scene": 0,
  "nodes": [
    {
      "name": "body",
      "extras": {
        "name": "beer"
      },
      "mesh": 0
    },
    {
      "name": "bodyCenter",
      "extras": {
        "name": "beer_1"
      },
      "mesh": 1
    },
    {
      "matrix": [
        1,
        0,
        0,
        0,
        0,
        1,
        0,
        0,
        0,
        0,
        1,
        0,
        0.02,
        0,
        0,
        1
      ],
      "name": "bothEnds",
      "extras": {
        "name": "beer_2"
      },
      "mesh": 2
    },
    {
      "name": "can",
      "extras": {
        "name": "body"
      },
      "children": [
        0,
        1,
        2
      ]
    }
  ],
  "bufferViews": [
    {
      "buffer": 0,
      "byteOffset": 0,
      "byteLength": 2724,
      "target": 34962,
      "byteStride": 12
    },
    {
      "buffer": 0,
      "byteOffset": 2724,
      "byteLength": 2724,
      "target": 34962,
      "byteStride": 12
    },
    {
      "buffer": 0,
      "byteOffset": 5448,
      "byteLength": 1816,
      "target": 34962,
      "byteStride": 8
    },
    {
      "buffer": 0,
      "byteOffset": 7264,
      "byteLength": 2000,
      "target": 34963
    },
    {
      "buffer": 0,
      "byteOffset": 9264,
      "byteLength": 480,
      "target": 34962,
      "byteStride": 12
    },
    {
      "buffer": 0,
      "byteOffset": 9744,
      "byteLength": 480,
      "target": 34962,
      "byteStride": 12
    },
    {
      "buffer": 0,
      "byteOffset": 10224,
      "byteLength": 320,
      "target": 34962,
      "byteStride": 8
    },
    {
      "buffer": 0,
      "byteOffset": 10544,
      "byteLength": 240,
      "target": 34963
    },
    {
      "buffer": 0,
      "byteOffset": 10784,
      "byteLength": 7284,
      "target": 34962,
      "byteStride": 12
    },
    {
      "buffer": 0,
      "byteOffset": 18068,
      "byteLength": 7284,
      "target": 34962,
      "byteStride": 12
    },
    {
      "buffer": 0,
      "byteOffset": 25352,
      "byteLength": 4856,
      "target": 34962,
      "byteStride": 8
    },
    {
      "buffer": 0,
      "byteOffset": 30208,
      "byteLength": 3500,
      "target": 34963
    }
  ],
  "buffers": [
    {
      "byteLength": 33708,
      "uri": "data:application/octet-stream;base64,"
    }
  ],
  "accessors": [
    {
      "bufferView": 0,
      "componentType": 5126,
      "count": 227,
      "max": [
        0.9707646369934082,
        3.8558757305145264,
        0.9713568091392517
      ],
      "min": [
        -0.9713595509529114,
        0.29044055938720703,
        -0.970581591129303
      ],
      "type": "VEC3"
    },
    {
      "bufferView": 1,
      "componentType": 5126,
      "count": 227,
      "max": [
        0.9888758063316345,
        0.47635823488235474,
        0.9882380962371826
      ],
      "min": [
        -0.9889232516288757,
        -0.9923895597457886,
        -0.9888158440589905
      ],
      "type": "VEC3"
    },
    {
      "bufferView": 2,
      "componentType": 5126,
      "count": 227,
      "max": [
        0.625,
        0.9959080219268799
      ],
      "min": [
        0.3647814393043518,
        0.012939274311065674
      ],
      "type": "VEC2"
    },
    {
      "bufferView": 3,
      "componentType": 5123,
      "count": 999,
      "max": [
        226
      ],
      "min": [
        0
      ],
      "type": "SCALAR"
    },
    {
      "bufferView": 4,
      "componentType": 5126,
      "count": 40,
      "max": [
        0.9703651070594788,
        2.9693400859832764,
        0.970935046672821
      ],
      "min": [
        -0.970931351184845,
        1.295506477355957,
        -0.9702712297439575
      ],
      "type": "VEC3"
    },
    {
      "bufferView": 5,
      "componentType": 5126,
      "count": 40,
      "max": [
        0.988878071308136,
        0.007468485273420811,
        0.9882346391677856
      ],
      "min": [
        -0.9889249801635742,
        -0.008789855055510998,
        -0.9888172149658203
      ],
      "type": "VEC3"
    },
    {
      "bufferView": 6,
      "componentType": 5126,
      "count": 40,
      "max": [
        0.6124999523162842,
        0.551761269569397
      ],
      "min": [
        0.38749998807907104,
        0.38194429874420166
      ],
      "type": "VEC2"
    },
    {
      "bufferView": 7,
      "componentType": 5123,
      "count": 120,
      "max": [
        39
      ],
      "min": [
        0
      ],
      "type": "SCALAR"
    },
    {
      "bufferView": 8,
      "componentType": 5126,
      "count": 607,
      "max": [
        0.9364905953407288,
        3.9411301612854004,
        0.9368981122970581
      ],
      "min": [
        -0.9368141293525696,
        -0.004816532135009766,
        -0.9363142251968384
      ],
      "type": "VEC3"
    },
    {
      "bufferView": 9,
      "componentType": 5126,
      "count": 607,
      "max": [
        0.9955905675888062,
        0.9999883770942688,
        0.9858994483947754
      ],
      "min": [
        -0.9956400394439697,
        -0.9999998807907104,
        -0.9940357208251953
      ],
      "type": "VEC3"
    },
    {
      "bufferView": 10,
      "componentType": 5126,
      "count": 607,
      "max": [
        0.9999129772186279,
        1
      ],
      "min": [
        0.00004400000034365803,
        -0.7143909931182861
      ],
      "type": "VEC2"
    },
    {
      "bufferView": 11,
      "componentType": 5123,
      "count": 1749,
      "max": [
        606
      ],
      "min": [
        0
      ],
      "type": "SCALAR"
    }
  ],
  "materials": [
    {
      "pbrMetallicRoughness": {
        "baseColorFactor": [
          1,
          0.3868987560272217,
          0.012292562983930111,
          1
        ],
        "metallicFactor": 0,
        "roughnessFactor": 0.5
      },
      "doubleSided": true,
      "name": "color-1"
    },
    {
      "pbrMetallicRoughness": {
        "baseColorFactor": [
          1,
          0.7417715787887573,
          0.1759236752986908,
          1
        ],
        "metallicFactor": 0,
        "roughnessFactor": 0.4000000059604645
      },
      "doubleSided": true,
      "name": "color-2"
    },
    {
      "pbrMetallicRoughness": {
        "baseColorFactor": [
          0.2853220999240875,
          0.2853220999240875,
          0.2853220999240875,
          1
        ],
        "metallicFactor": 0,
        "roughnessFactor": 0.5
      },
      "doubleSided": true,
      "name": "color-3"
    }
  ],
  "meshes": [
    {
      "primitives": [
        {
          "mode": 4,
          "attributes": {
            "POSITION": 0,
            "NORMAL": 1,
            "TEXCOORD_0": 2
          },
          "indices": 3,
          "material": 0
        }
      ]
    },
    {
      "primitives": [
        {
          "mode": 4,
          "attributes": {
            "POSITION": 4,
            "NORMAL": 5,
            "TEXCOORD_0": 6
          },
          "indices": 7,
          "material": 1
        }
      ]
    },
    {
      "primitives": [
        {
          "mode": 4,
          "attributes": {
            "POSITION": 8,
            "NORMAL": 9,
            "TEXCOORD_0": 10
          },
          "indices": 11,
          "material": 2
        }
      ]
    }
  ]
}