{
  "asset": {
    "version": "2.0",
    "generator": "THREE.GLTFExporter"
  },
  "scenes": [
    {
      "name": "Scene",
      "nodes": [
        1
      ]
    }
  ],
  "scene": 0,
  "nodes": [
    {
      "name": "body",
      "extras": {
        "name": "chair.002"
      },
      "mesh": 0
    },
    {
      "name": "chair",
      "extras": {
        "name": "chair"
      },
      "children": [
        0
      ]
    }
  ],
  "bufferViews": [
    {
      "buffer": 0,
      "byteOffset": 0,
      "byteLength": 14328,
      "target": 34962,
      "byteStride": 12
    },
    {
      "buffer": 0,
      "byteOffset": 14328,
      "byteLength": 14328,
      "target": 34962,
      "byteStride": 12
    },
    {
      "buffer": 0,
      "byteOffset": 28656,
      "byteLength": 9552,
      "target": 34962,
      "byteStride": 8
    },
    {
      "buffer": 0,
      "byteOffset": 38208,
      "byteLength": 9552,
      "target": 34962,
      "byteStride": 8
    },
    {
      "buffer": 0,
      "byteOffset": 47760,
      "byteLength": 2700,
      "target": 34963
    }
  ],
  "buffers": [
    {
      "byteLength": 50460,
      "uri": "data:application/octet-stream;base64,"
    }
  ],
  "accessors": [
    {
      "bufferView": 0,
      "componentType": 5126,
      "count": 1194,
      "max": [
        2.0199060440063477,
        4.396636962890625,
        2.0506718158721924
      ],
      "min": [
        -2.1651980876922607,
        -0.000020819661585846916,
        -2.0667548179626465
      ],
      "type": "VEC3"
    },
    {
      "bufferView": 1,
      "componentType": 5126,
      "count": 1194,
      "max": [
        0.9994205236434937,
        0.9997329711914062,
        0.9986312985420227
      ],
      "min": [
        -0.9989480972290039,
        -0.999160647392273,
        -0.999178946018219
      ],
      "type": "VEC3"
    },
    {
      "bufferView": 2,
      "componentType": 5126,
      "count": 1194,
      "max": [
        1,
        1.0000005960464478
      ],
      "min": [
        0.014611586928367615,
        0
      ],
      "type": "VEC2"
    },
    {
      "bufferView": 3,
      "componentType": 5123,
      "count": 1194,
      "max": [
        65535,
        65535,
        65535,
        65535
      ],
      "min": [
        65535,
        65535,
        65535,
        65535
      ],
      "type": "VEC4",
      "normalized": true
    },
    {
      "bufferView": 4,
      "componentType": 5123,
      "count": 1350,
      "max": [
        1193
      ],
      "min": [
        0
      ],
      "type": "SCALAR"
    }
  ],
  "materials": [
    {
      "pbrMetallicRoughness": {
        "baseColorFactor": [
          0.2663556933403015,
          0.10224169492721558,
          0.042311426252126694,
          1
        ],
        "metallicFactor": 0,
        "roughnessFactor": 0.7590909004211426
      },
      "doubleSided": true,
      "name": "body"
    }
  ],
  "meshes": [
    {
      "primitives": [
        {
          "mode": 4,
          "attributes": {
            "POSITION": 0,
            "NORMAL": 1,
            "TEXCOORD_0": 2,
            "COLOR_0": 3
          },
          "indices": 4,
          "material": 0
        }
      ]
    }
  ]
}