{
  "asset": {
    "version": "2.0",
    "generator": "THREE.GLTFExporter"
  },
  "scenes": [
    {
      "name": "Scene",
      "nodes": [
        2
      ]
    }
  ],
  "scene": 0,
  "nodes": [
    {
      "name": "body",
      "mesh": 0
    },
    {
      "name": "handle",
      "mesh": 1
    },
    {
      "name": "pan",
      "extras": {
        "name": "pan.001"
      },
      "children": [
        0,
        1
      ]
    }
  ],
  "bufferViews": [
    {
      "buffer": 0,
      "byteOffset": 0,
      "byteLength": 3840,
      "target": 34962,
      "byteStride": 12
    },
    {
      "buffer": 0,
      "byteOffset": 3840,
      "byteLength": 3840,
      "target": 34962,
      "byteStride": 12
    },
    {
      "buffer": 0,
      "byteOffset": 7680,
      "byteLength": 2560,
      "target": 34962,
      "byteStride": 8
    },
    {
      "buffer": 0,
      "byteOffset": 10240,
      "byteLength": 2928,
      "target": 34963
    },
    {
      "buffer": 0,
      "byteOffset": 13168,
      "byteLength": 2760,
      "target": 34962,
      "byteStride": 12
    },
    {
      "buffer": 0,
      "byteOffset": 15928,
      "byteLength": 2760,
      "target": 34962,
      "byteStride": 12
    },
    {
      "buffer": 0,
      "byteOffset": 18688,
      "byteLength": 1840,
      "target": 34962,
      "byteStride": 8
    },
    {
      "buffer": 0,
      "byteOffset": 20528,
      "byteLength": 2304,
      "target": 34963
    }
  ],
  "buffers": [
    {
      "byteLength": 22832,
      "uri": "data:application/octet-stream;base64,"
    }
  ],
  "accessors": [
    {
      "bufferView": 0,
      "componentType": 5126,
      "count": 320,
      "max": [
        2.665066719055176,
        0.9643173217773438,
        2.4622910022735596
      ],
      "min": [
        -2.665067195892334,
        -0.0019345283508300781,
        -3.2279062271118164
      ],
      "type": "VEC3"
    },
    {
      "bufferView": 1,
      "componentType": 5126,
      "count": 320,
      "max": [
        0.9977522492408752,
        1,
        1
      ],
      "min": [
        -0.9977522492408752,
        -0.9999999403953552,
        -1
      ],
      "type": "VEC3"
    },
    {
      "bufferView": 2,
      "componentType": 5126,
      "count": 320,
      "max": [
        0.65625,
        1
      ],
      "min": [
        0.34375,
        0
      ],
      "type": "VEC2"
    },
    {
      "bufferView": 3,
      "componentType": 5123,
      "count": 1464,
      "max": [
        319
      ],
      "min": [
        0
      ],
      "type": "SCALAR"
    },
    {
      "bufferView": 4,
      "componentType": 5126,
      "count": 230,
      "max": [
        0.42026373744010925,
        1.4956496953964233,
        6.372982025146484
      ],
      "min": [
        -0.4202645421028137,
        0.25562700629234314,
        2.318679094314575
      ],
      "type": "VEC3"
    },
    {
      "bufferView": 5,
      "componentType": 5126,
      "count": 230,
      "max": [
        0.9999411106109619,
        0.9969655871391296,
        0.9988480806350708
      ],
      "min": [
        -0.9999487400054932,
        -0.9877002835273743,
        -0.9999999403953552
      ],
      "type": "VEC3"
    },
    {
      "bufferView": 6,
      "componentType": 5126,
      "count": 230,
      "max": [
        0.5416669845581055,
        1
      ],
      "min": [
        0.34375,
        0
      ],
      "type": "VEC2"
    },
    {
      "bufferView": 7,
      "componentType": 5123,
      "count": 1152,
      "max": [
        229
      ],
      "min": [
        0
      ],
      "type": "SCALAR"
    }
  ],
  "materials": [
    {
      "pbrMetallicRoughness": {
        "baseColorFactor": [
          0.1574343740940094,
          0.1574343740940094,
          0.1574343740940094,
          1
        ],
        "metallicFactor": 0.7007565498352051,
        "roughnessFactor": 0.3647342920303345
      },
      "doubleSided": true,
      "name": "材質.004"
    },
    {
      "pbrMetallicRoughness": {
        "baseColorFactor": [
          0.768151581287384,
          0.2746787369251251,
          0.08865540474653244,
          1
        ],
        "metallicFactor": 0,
        "roughnessFactor": 0.5
      },
      "doubleSided": true,
      "name": "材質.005"
    }
  ],
  "meshes": [
    {
      "primitives": [
        {
          "mode": 4,
          "attributes": {
            "POSITION": 0,
            "NORMAL": 1,
            "TEXCOORD_0": 2
          },
          "indices": 3,
          "material": 0
        }
      ]
    },
    {
      "primitives": [
        {
          "mode": 4,
          "attributes": {
            "POSITION": 4,
            "NORMAL": 5,
            "TEXCOORD_0": 6
          },
          "indices": 7,
          "material": 1
        }
      ]
    }
  ]
}