{
    "asset" : {
        "generator" : "Khronos glTF Blender I/O v1.4.40",
        "version" : "2.0"
    },
    "scene" : 0,
    "scenes" : [
        {
            "name" : "Scene",
            "nodes" : [
                0
            ]
        }
    ],
    "nodes" : [
        {
            "mesh" : 0,
            "name" : "pan.001",
            "rotation" : [
                0.7071068286895752,
                0,
                0,
                0.7071067094802856
            ],
            "translation" : [
                0,
                0.35787636041641235,
                -1
            ]
        }
    ],
    "materials" : [
        {
            "doubleSided" : true,
            "name" : "\u6750\u8cea.004",
            "pbrMetallicRoughness" : {
                "baseColorFactor" : [
                    0.1424006223678589,
                    0.1424006223678589,
                    0.1424006223678589,
                    1
                ],
                "metallicFactor" : 0.4716981053352356,
                "roughnessFactor" : 0.3647342920303345
            }
        },
        {
            "doubleSided" : true,
            "name" : "\u6750\u8cea.005",
            "pbrMetallicRoughness" : {
                "baseColorFactor" : [
                    0.768151581287384,
                    0.2746787369251251,
                    0.08865540474653244,
                    1
                ],
                "metallicFactor" : 0,
                "roughnessFactor" : 0.5
            }
        }
    ],
    "meshes" : [
        {
            "name" : "pan.001",
            "primitives" : [
                {
                    "attributes" : {
                        "POSITION" : 0,
                        "NORMAL" : 1,
                        "TEXCOORD_0" : 2
                    },
                    "indices" : 3,
                    "material" : 0
                },
                {
                    "attributes" : {
                        "POSITION" : 4,
                        "NORMAL" : 5,
                        "TEXCOORD_0" : 6
                    },
                    "indices" : 7,
                    "material" : 1
                }
            ]
        }
    ],
    "accessors" : [
        {
            "bufferView" : 0,
            "componentType" : 5126,
            "count" : 320,
            "max" : [
                2.665066719055176,
                2.4622910022735596,
                0.3598133623600006
            ],
            "min" : [
                -2.665067195892334,
                -3.2279062271118164,
                -0.6064376831054688
            ],
            "type" : "VEC3"
        },
        {
            "bufferView" : 1,
            "componentType" : 5126,
            "count" : 320,
            "type" : "VEC3"
        },
        {
            "bufferView" : 2,
            "componentType" : 5126,
            "count" : 320,
            "type" : "VEC2"
        },
        {
            "bufferView" : 3,
            "componentType" : 5123,
            "count" : 1464,
            "type" : "SCALAR"
        },
        {
            "bufferView" : 4,
            "componentType" : 5126,
            "count" : 230,
            "max" : [
                0.42026373744010925,
                6.372982025146484,
                0.10225173830986023
            ],
            "min" : [
                -0.4202645421028137,
                2.318679094314575,
                -1.1377716064453125
            ],
            "type" : "VEC3"
        },
        {
            "bufferView" : 5,
            "componentType" : 5126,
            "count" : 230,
            "type" : "VEC3"
        },
        {
            "bufferView" : 6,
            "componentType" : 5126,
            "count" : 230,
            "type" : "VEC2"
        },
        {
            "bufferView" : 7,
            "componentType" : 5123,
            "count" : 1152,
            "type" : "SCALAR"
        }
    ],
    "bufferViews" : [
        {
            "buffer" : 0,
            "byteLength" : 3840,
            "byteOffset" : 0
        },
        {
            "buffer" : 0,
            "byteLength" : 3840,
            "byteOffset" : 3840
        },
        {
            "buffer" : 0,
            "byteLength" : 2560,
            "byteOffset" : 7680
        },
        {
            "buffer" : 0,
            "byteLength" : 2928,
            "byteOffset" : 10240
        },
        {
            "buffer" : 0,
            "byteLength" : 2760,
            "byteOffset" : 13168
        },
        {
            "buffer" : 0,
            "byteLength" : 2760,
            "byteOffset" : 15928
        },
        {
            "buffer" : 0,
            "byteLength" : 1840,
            "byteOffset" : 18688
        },
        {
            "buffer" : 0,
            "byteLength" : 2304,
            "byteOffset" : 20528
        }
    ],
    "buffers" : [
        {
            "byteLength" : 22832,
            "uri" : "data:application/octet-stream;base64,"
        }
    ]
}
