{
  "asset": {
    "version": "2.0",
    "generator": "THREE.GLTFExporter"
  },
  "scenes": [
    {
      "name": "Scene",
      "nodes": [
        4
      ]
    }
  ],
  "scene": 0,
  "nodes": [
    {
      "name": "平面",
      "mesh": 0
    },
    {
      "name": "平面_1",
      "mesh": 1
    },
    {
      "name": "平面_2",
      "mesh": 2
    },
    {
      "name": "平面_3",
      "mesh": 3
    },
    {
      "matrix": [
        3.442542314529419,
        0,
        0,
        0,
        0,
        2.290500976843768,
        2.5699616055345005,
        0,
        0,
        -2.5699616055345005,
        2.290500976843768,
        0,
        0,
        2.4849607944488525,
        0,
        1
      ],
      "name": "umbrella",
      "extras": {
        "name": "平面.001"
      },
      "children": [
        0,
        1,
        2,
        3
      ]
    }
  ],
  "bufferViews": [
    {
      "buffer": 0,
      "byteOffset": 0,
      "byteLength": 6912,
      "target": 34962,
      "byteStride": 12
    },
    {
      "buffer": 0,
      "byteOffset": 6912,
      "byteLength": 6912,
      "target": 34962,
      "byteStride": 12
    },
    {
      "buffer": 0,
      "byteOffset": 13824,
      "byteLength": 4608,
      "target": 34962,
      "byteStride": 8
    },
    {
      "buffer": 0,
      "byteOffset": 18432,
      "byteLength": 1728,
      "target": 34963
    },
    {
      "buffer": 0,
      "byteOffset": 20160,
      "byteLength": 6912,
      "target": 34962,
      "byteStride": 12
    },
    {
      "buffer": 0,
      "byteOffset": 27072,
      "byteLength": 6912,
      "target": 34962,
      "byteStride": 12
    },
    {
      "buffer": 0,
      "byteOffset": 33984,
      "byteLength": 4608,
      "target": 34962,
      "byteStride": 8
    },
    {
      "buffer": 0,
      "byteOffset": 38592,
      "byteLength": 1728,
      "target": 34963
    },
    {
      "buffer": 0,
      "byteOffset": 40320,
      "byteLength": 2784,
      "target": 34962,
      "byteStride": 12
    },
    {
      "buffer": 0,
      "byteOffset": 43104,
      "byteLength": 2784,
      "target": 34962,
      "byteStride": 12
    },
    {
      "buffer": 0,
      "byteOffset": 45888,
      "byteLength": 1856,
      "target": 34962,
      "byteStride": 8
    },
    {
      "buffer": 0,
      "byteOffset": 47744,
      "byteLength": 696,
      "target": 34963
    },
    {
      "buffer": 0,
      "byteOffset": 48440,
      "byteLength": 17280,
      "target": 34962,
      "byteStride": 12
    },
    {
      "buffer": 0,
      "byteOffset": 65720,
      "byteLength": 17280,
      "target": 34962,
      "byteStride": 12
    },
    {
      "buffer": 0,
      "byteOffset": 83000,
      "byteLength": 11520,
      "target": 34962,
      "byteStride": 8
    },
    {
      "buffer": 0,
      "byteOffset": 94520,
      "byteLength": 4308,
      "target": 34963
    }
  ],
  "buffers": [
    {
      "byteLength": 98828,
      "uri": "data:application/octet-stream;base64,"
    }
  ],
  "accessors": [
    {
      "bufferView": 0,
      "componentType": 5126,
      "count": 576,
      "max": [
        0.9651994109153748,
        0.6599236726760864,
        0.9655138254165649
      ],
      "min": [
        -0.9651994109153748,
        0.025261182337999344,
        -0.9671022891998291
      ],
      "type": "VEC3"
    },
    {
      "bufferView": 1,
      "componentType": 5126,
      "count": 576,
      "max": [
        0.883484959602356,
        1,
        0.8832208514213562
      ],
      "min": [
        -0.8834848403930664,
        0.4655658006668091,
        -0.8819910287857056
      ],
      "type": "VEC3"
    },
    {
      "bufferView": 2,
      "componentType": 5126,
      "count": 576,
      "max": [
        1,
        1
      ],
      "min": [
        0,
        0
      ],
      "type": "VEC2"
    },
    {
      "bufferView": 3,
      "componentType": 5123,
      "count": 864,
      "max": [
        575
      ],
      "min": [
        0
      ],
      "type": "SCALAR"
    },
    {
      "bufferView": 4,
      "componentType": 5126,
      "count": 576,
      "max": [
        0.9651994109153748,
        0.6599236726760864,
        0.9655138254165649
      ],
      "min": [
        -0.9651994109153748,
        0.025261182337999344,
        -0.9671022891998291
      ],
      "type": "VEC3"
    },
    {
      "bufferView": 5,
      "componentType": 5126,
      "count": 576,
      "max": [
        0.8834847807884216,
        1,
        0.8832171559333801
      ],
      "min": [
        -0.883484959602356,
        0.4655660092830658,
        -0.8819911479949951
      ],
      "type": "VEC3"
    },
    {
      "bufferView": 6,
      "componentType": 5126,
      "count": 576,
      "max": [
        1,
        1
      ],
      "min": [
        0,
        0
      ],
      "type": "VEC2"
    },
    {
      "bufferView": 7,
      "componentType": 5123,
      "count": 864,
      "max": [
        575
      ],
      "min": [
        0
      ],
      "type": "SCALAR"
    },
    {
      "bufferView": 8,
      "componentType": 5126,
      "count": 232,
      "max": [
        0.019981546327471733,
        0.829225480556488,
        0.028679033741354942
      ],
      "min": [
        -0.019981421530246735,
        -0.6833893656730652,
        -0.019980337470769882
      ],
      "type": "VEC3"
    },
    {
      "bufferView": 9,
      "componentType": 5126,
      "count": 232,
      "max": [
        1,
        1.0000001192092896,
        1.0000001192092896
      ],
      "min": [
        -1,
        -1.0000001192092896,
        -1
      ],
      "type": "VEC3"
    },
    {
      "bufferView": 10,
      "componentType": 5126,
      "count": 232,
      "max": [
        0.875,
        1
      ],
      "min": [
        0.125,
        0
      ],
      "type": "VEC2"
    },
    {
      "bufferView": 11,
      "componentType": 5123,
      "count": 348,
      "max": [
        231
      ],
      "min": [
        0
      ],
      "type": "SCALAR"
    },
    {
      "bufferView": 12,
      "componentType": 5126,
      "count": 1440,
      "max": [
        0.021694853901863098,
        -0.6520686745643616,
        0.1956581473350525
      ],
      "min": [
        -0.02169494889676571,
        -0.90456622838974,
        -0.02137492597103119
      ],
      "type": "VEC3"
    },
    {
      "bufferView": 13,
      "componentType": 5126,
      "count": 1440,
      "max": [
        0.9999992847442627,
        1,
        1.0000001192092896
      ],
      "min": [
        -0.9999992847442627,
        -1,
        -1.0000001192092896
      ],
      "type": "VEC3"
    },
    {
      "bufferView": 14,
      "componentType": 5126,
      "count": 1440,
      "max": [
        0.75,
        1
      ],
      "min": [
        0.1875,
        0
      ],
      "type": "VEC2"
    },
    {
      "bufferView": 15,
      "componentType": 5123,
      "count": 2154,
      "max": [
        1439
      ],
      "min": [
        0
      ],
      "type": "SCALAR"
    }
  ],
  "materials": [
    {
      "pbrMetallicRoughness": {
        "baseColorFactor": [
          0.302961528301239,
          1,
          0.7046684622764587,
          1
        ],
        "metallicFactor": 0,
        "roughnessFactor": 0.5
      },
      "doubleSided": true,
      "name": "材質.002"
    },
    {
      "pbrMetallicRoughness": {
        "baseColorFactor": [
          0.15391044318675995,
          0.32610344886779785,
          0.6283245086669922,
          1
        ],
        "metallicFactor": 0,
        "roughnessFactor": 0.5
      },
      "doubleSided": true,
      "name": "材質.010"
    },
    {
      "pbrMetallicRoughness": {
        "baseColorFactor": [
          0.3093418776988983,
          0.3093418776988983,
          0.3093418776988983,
          1
        ],
        "metallicFactor": 0.36477985978126526,
        "roughnessFactor": 0.5
      },
      "doubleSided": true,
      "name": "材質.011"
    },
    {
      "pbrMetallicRoughness": {
        "baseColorFactor": [
          0.21328946948051453,
          0.18734824657440186,
          0.16152292490005493,
          1
        ],
        "metallicFactor": 0,
        "roughnessFactor": 0.5
      },
      "doubleSided": true,
      "name": "材質.013"
    }
  ],
  "meshes": [
    {
      "primitives": [
        {
          "mode": 4,
          "attributes": {
            "POSITION": 0,
            "NORMAL": 1,
            "TEXCOORD_0": 2
          },
          "indices": 3,
          "material": 0
        }
      ]
    },
    {
      "primitives": [
        {
          "mode": 4,
          "attributes": {
            "POSITION": 4,
            "NORMAL": 5,
            "TEXCOORD_0": 6
          },
          "indices": 7,
          "material": 1
        }
      ]
    },
    {
      "primitives": [
        {
          "mode": 4,
          "attributes": {
            "POSITION": 8,
            "NORMAL": 9,
            "TEXCOORD_0": 10
          },
          "indices": 11,
          "material": 2
        }
      ]
    },
    {
      "primitives": [
        {
          "mode": 4,
          "attributes": {
            "POSITION": 12,
            "NORMAL": 13,
            "TEXCOORD_0": 14
          },
          "indices": 15,
          "material": 3
        }
      ]
    }
  ]
}