{
  "asset": {
    "version": "2.0",
    "generator": "THREE.GLTFExporter"
  },
  "scenes": [
    {
      "name": "Scene",
      "nodes": [
        4
      ]
    }
  ],
  "scene": 0,
  "nodes": [
    {
      "name": "body1",
      "mesh": 0
    },
    {
      "name": "body2",
      "mesh": 1
    },
    {
      "name": "平面002_3",
      "mesh": 2
    },
    {
      "name": "平面002_4",
      "mesh": 3
    },
    {
      "name": "umbrella",
      "extras": {
        "name": "平面.002"
      },
      "children": [
        0,
        1,
        2,
        3
      ]
    }
  ],
  "bufferViews": [
    {
      "buffer": 0,
      "byteOffset": 0,
      "byteLength": 4920,
      "target": 34962,
      "byteStride": 12
    },
    {
      "buffer": 0,
      "byteOffset": 4920,
      "byteLength": 4920,
      "target": 34962,
      "byteStride": 12
    },
    {
      "buffer": 0,
      "byteOffset": 9840,
      "byteLength": 3280,
      "target": 34962,
      "byteStride": 8
    },
    {
      "buffer": 0,
      "byteOffset": 13120,
      "byteLength": 1056,
      "target": 34963
    },
    {
      "buffer": 0,
      "byteOffset": 14176,
      "byteLength": 5016,
      "target": 34962,
      "byteStride": 12
    },
    {
      "buffer": 0,
      "byteOffset": 19192,
      "byteLength": 5016,
      "target": 34962,
      "byteStride": 12
    },
    {
      "buffer": 0,
      "byteOffset": 24208,
      "byteLength": 3344,
      "target": 34962,
      "byteStride": 8
    },
    {
      "buffer": 0,
      "byteOffset": 27552,
      "byteLength": 1080,
      "target": 34963
    },
    {
      "buffer": 0,
      "byteOffset": 28632,
      "byteLength": 2424,
      "target": 34962,
      "byteStride": 12
    },
    {
      "buffer": 0,
      "byteOffset": 31056,
      "byteLength": 2424,
      "target": 34962,
      "byteStride": 12
    },
    {
      "buffer": 0,
      "byteOffset": 33480,
      "byteLength": 1616,
      "target": 34962,
      "byteStride": 8
    },
    {
      "buffer": 0,
      "byteOffset": 35096,
      "byteLength": 552,
      "target": 34963
    },
    {
      "buffer": 0,
      "byteOffset": 35648,
      "byteLength": 5808,
      "target": 34962,
      "byteStride": 12
    },
    {
      "buffer": 0,
      "byteOffset": 41456,
      "byteLength": 5808,
      "target": 34962,
      "byteStride": 12
    },
    {
      "buffer": 0,
      "byteOffset": 47264,
      "byteLength": 3872,
      "target": 34962,
      "byteStride": 8
    },
    {
      "buffer": 0,
      "byteOffset": 51136,
      "byteLength": 1056,
      "target": 34963
    }
  ],
  "buffers": [
    {
      "byteLength": 52192,
      "uri": "data:application/octet-stream;base64,"
    }
  ],
  "accessors": [
    {
      "bufferView": 0,
      "componentType": 5126,
      "count": 410,
      "max": [
        3.1388144493103027,
        4.942680835723877,
        2.5300469398498535
      ],
      "min": [
        -3.1458497047424316,
        0.004161044955253601,
        -1.7939602136611938
      ],
      "type": "VEC3"
    },
    {
      "bufferView": 1,
      "componentType": 5126,
      "count": 410,
      "max": [
        0.8859477043151855,
        0.999192476272583,
        0.9998117089271545
      ],
      "min": [
        -0.8740085959434509,
        -0.399308443069458,
        -0.2147178053855896
      ],
      "type": "VEC3"
    },
    {
      "bufferView": 2,
      "componentType": 5126,
      "count": 410,
      "max": [
        1.000009298324585,
        1.0000098943710327
      ],
      "min": [
        -0.000010324339200451504,
        -0.000009059906005859375
      ],
      "type": "VEC2"
    },
    {
      "bufferView": 3,
      "componentType": 5123,
      "count": 528,
      "max": [
        409
      ],
      "min": [
        0
      ],
      "type": "SCALAR"
    },
    {
      "bufferView": 4,
      "componentType": 5126,
      "count": 418,
      "max": [
        3.082324743270874,
        4.909653663635254,
        2.513312339782715
      ],
      "min": [
        -3.0906457901000977,
        0.015545196831226349,
        -1.7939602136611938
      ],
      "type": "VEC3"
    },
    {
      "bufferView": 5,
      "componentType": 5126,
      "count": 418,
      "max": [
        0.8392125368118286,
        0.9579669833183289,
        0.970550000667572
      ],
      "min": [
        -0.8349428772926331,
        -0.32751888036727905,
        -0.18586552143096924
      ],
      "type": "VEC3"
    },
    {
      "bufferView": 6,
      "componentType": 5126,
      "count": 418,
      "max": [
        1.0000090599060059,
        1.0000102519989014
      ],
      "min": [
        -0.000009217373190040234,
        -0.000011563301086425781
      ],
      "type": "VEC2"
    },
    {
      "bufferView": 7,
      "componentType": 5123,
      "count": 540,
      "max": [
        417
      ],
      "min": [
        0
      ],
      "type": "SCALAR"
    },
    {
      "bufferView": 8,
      "componentType": 5126,
      "count": 202,
      "max": [
        0.0687873363494873,
        4.171028137207031,
        2.3271477222442627
      ],
      "min": [
        -0.0687868595123291,
        0.8118332028388977,
        -1.753266453742981
      ],
      "type": "VEC3"
    },
    {
      "bufferView": 9,
      "componentType": 5126,
      "count": 202,
      "max": [
        0.9996395111083984,
        0.9959583282470703,
        0.9957836866378784
      ],
      "min": [
        -0.9997696876525879,
        -0.9993013143539429,
        -0.9877443909645081
      ],
      "type": "VEC3"
    },
    {
      "bufferView": 10,
      "componentType": 5126,
      "count": 202,
      "max": [
        0.875,
        1
      ],
      "min": [
        0.125,
        0
      ],
      "type": "VEC2"
    },
    {
      "bufferView": 11,
      "componentType": 5123,
      "count": 276,
      "max": [
        201
      ],
      "min": [
        0
      ],
      "type": "SCALAR"
    },
    {
      "bufferView": 12,
      "componentType": 5126,
      "count": 484,
      "max": [
        0.07508260011672974,
        0.9799049496650696,
        -1.5257067680358887
      ],
      "min": [
        -0.07505455613136292,
        0.0023708194494247437,
        -2.2007923126220703
      ],
      "type": "VEC3"
    },
    {
      "bufferView": 13,
      "componentType": 5126,
      "count": 484,
      "max": [
        0.9997197389602661,
        0.9947172403335571,
        0.9975250959396362
      ],
      "min": [
        -0.9996187090873718,
        -0.9957564473152161,
        -0.9977086782455444
      ],
      "type": "VEC3"
    },
    {
      "bufferView": 14,
      "componentType": 5126,
      "count": 484,
      "max": [
        0.75,
        1
      ],
      "min": [
        0.1875,
        0
      ],
      "type": "VEC2"
    },
    {
      "bufferView": 15,
      "componentType": 5123,
      "count": 528,
      "max": [
        483
      ],
      "min": [
        0
      ],
      "type": "SCALAR"
    }
  ],
  "materials": [
    {
      "pbrMetallicRoughness": {
        "baseColorFactor": [
          0.30498719215393066,
          1,
          0.7083760499954224,
          1
        ],
        "metallicFactor": 0,
        "roughnessFactor": 0.5
      },
      "doubleSided": true,
      "name": "材質.002"
    },
    {
      "pbrMetallicRoughness": {
        "baseColorFactor": [
          0.15391044318675995,
          0.32610344886779785,
          0.6283245086669922,
          1
        ],
        "metallicFactor": 0,
        "roughnessFactor": 0.5
      },
      "doubleSided": true,
      "name": "材質.010"
    },
    {
      "pbrMetallicRoughness": {
        "baseColorFactor": [
          0.3093418776988983,
          0.3093418776988983,
          0.3093418776988983,
          1
        ],
        "metallicFactor": 0.36477985978126526,
        "roughnessFactor": 0.5
      },
      "doubleSided": true,
      "name": "材質.011"
    },
    {
      "pbrMetallicRoughness": {
        "baseColorFactor": [
          0.21328946948051453,
          0.18734824657440186,
          0.16152292490005493,
          1
        ],
        "metallicFactor": 0,
        "roughnessFactor": 0.5
      },
      "doubleSided": true,
      "name": "材質.013"
    }
  ],
  "meshes": [
    {
      "primitives": [
        {
          "mode": 4,
          "attributes": {
            "POSITION": 0,
            "NORMAL": 1,
            "TEXCOORD_0": 2
          },
          "indices": 3,
          "material": 0
        }
      ]
    },
    {
      "primitives": [
        {
          "mode": 4,
          "attributes": {
            "POSITION": 4,
            "NORMAL": 5,
            "TEXCOORD_0": 6
          },
          "indices": 7,
          "material": 1
        }
      ]
    },
    {
      "primitives": [
        {
          "mode": 4,
          "attributes": {
            "POSITION": 8,
            "NORMAL": 9,
            "TEXCOORD_0": 10
          },
          "indices": 11,
          "material": 2
        }
      ]
    },
    {
      "primitives": [
        {
          "mode": 4,
          "attributes": {
            "POSITION": 12,
            "NORMAL": 13,
            "TEXCOORD_0": 14
          },
          "indices": 15,
          "material": 3
        }
      ]
    }
  ]
}