{
  "asset": {
    "version": "2.0",
    "generator": "THREE.GLTFExporter"
  },
  "scenes": [
    {
      "name": "Scene",
      "nodes": [
        5
      ]
    }
  ],
  "scene": 0,
  "nodes": [
    {
      "name": "body1",
      "mesh": 0
    },
    {
      "name": "body2",
      "mesh": 1
    },
    {
      "name": "平面002_3",
      "mesh": 2
    },
    {
      "name": "平面002_4",
      "mesh": 3
    },
    {
      "name": "平面002_5",
      "mesh": 4
    },
    {
      "name": "umbrella",
      "extras": {
        "name": "平面.002"
      },
      "children": [
        0,
        1,
        2,
        3,
        4
      ]
    }
  ],
  "bufferViews": [
    {
      "buffer": 0,
      "byteOffset": 0,
      "byteLength": 5148,
      "target": 34962,
      "byteStride": 12
    },
    {
      "buffer": 0,
      "byteOffset": 5148,
      "byteLength": 5148,
      "target": 34962,
      "byteStride": 12
    },
    {
      "buffer": 0,
      "byteOffset": 10296,
      "byteLength": 3432,
      "target": 34962,
      "byteStride": 8
    },
    {
      "buffer": 0,
      "byteOffset": 13728,
      "byteLength": 860,
      "target": 34963
    },
    {
      "buffer": 0,
      "byteOffset": 14588,
      "byteLength": 5292,
      "target": 34962,
      "byteStride": 12
    },
    {
      "buffer": 0,
      "byteOffset": 19880,
      "byteLength": 5292,
      "target": 34962,
      "byteStride": 12
    },
    {
      "buffer": 0,
      "byteOffset": 25172,
      "byteLength": 3528,
      "target": 34962,
      "byteStride": 8
    },
    {
      "buffer": 0,
      "byteOffset": 28700,
      "byteLength": 884,
      "target": 34963
    },
    {
      "buffer": 0,
      "byteOffset": 29584,
      "byteLength": 2088,
      "target": 34962,
      "byteStride": 12
    },
    {
      "buffer": 0,
      "byteOffset": 31672,
      "byteLength": 2088,
      "target": 34962,
      "byteStride": 12
    },
    {
      "buffer": 0,
      "byteOffset": 33760,
      "byteLength": 1392,
      "target": 34962,
      "byteStride": 8
    },
    {
      "buffer": 0,
      "byteOffset": 35152,
      "byteLength": 348,
      "target": 34963
    },
    {
      "buffer": 0,
      "byteOffset": 35500,
      "byteLength": 4752,
      "target": 34962,
      "byteStride": 12
    },
    {
      "buffer": 0,
      "byteOffset": 40252,
      "byteLength": 4752,
      "target": 34962,
      "byteStride": 12
    },
    {
      "buffer": 0,
      "byteOffset": 45004,
      "byteLength": 3168,
      "target": 34962,
      "byteStride": 8
    },
    {
      "buffer": 0,
      "byteOffset": 48172,
      "byteLength": 792,
      "target": 34963
    },
    {
      "buffer": 0,
      "byteOffset": 48964,
      "byteLength": 5616,
      "target": 34962,
      "byteStride": 12
    },
    {
      "buffer": 0,
      "byteOffset": 54580,
      "byteLength": 5616,
      "target": 34962,
      "byteStride": 12
    },
    {
      "buffer": 0,
      "byteOffset": 60196,
      "byteLength": 3744,
      "target": 34962,
      "byteStride": 8
    },
    {
      "buffer": 0,
      "byteOffset": 63940,
      "byteLength": 936,
      "target": 34963
    }
  ],
  "buffers": [
    {
      "byteLength": 64876,
      "uri": "data:application/octet-stream;base64,"
    }
  ],
  "accessors": [
    {
      "bufferView": 0,
      "componentType": 5126,
      "count": 429,
      "max": [
        3.1388144493103027,
        4.942680835723877,
        2.5300469398498535
      ],
      "min": [
        -3.1458497047424316,
        0.004161044955253601,
        -1.7939602136611938
      ],
      "type": "VEC3"
    },
    {
      "bufferView": 1,
      "componentType": 5126,
      "count": 429,
      "max": [
        0.8683797717094421,
        0.9992513060569763,
        0.9991843700408936
      ],
      "min": [
        -0.8666651248931885,
        -0.3788784146308899,
        -0.20235121250152588
      ],
      "type": "VEC3"
    },
    {
      "bufferView": 2,
      "componentType": 5126,
      "count": 429,
      "max": [
        1.000009298324585,
        1.0000098943710327
      ],
      "min": [
        -0.000010324339200451504,
        -0.000009059906005859375
      ],
      "type": "VEC2"
    },
    {
      "bufferView": 3,
      "componentType": 5123,
      "count": 429,
      "max": [
        428
      ],
      "min": [
        0
      ],
      "type": "SCALAR"
    },
    {
      "bufferView": 4,
      "componentType": 5126,
      "count": 441,
      "max": [
        3.082324743270874,
        4.908018112182617,
        2.513312339782715
      ],
      "min": [
        -3.0906457901000977,
        0.015545196831226349,
        -1.7939602136611938
      ],
      "type": "VEC3"
    },
    {
      "bufferView": 5,
      "componentType": 5126,
      "count": 441,
      "max": [
        0.8429344892501831,
        0.9579582214355469,
        0.9862057566642761
      ],
      "min": [
        -0.8382095098495483,
        -0.3788790702819824,
        -0.20234498381614685
      ],
      "type": "VEC3"
    },
    {
      "bufferView": 6,
      "componentType": 5126,
      "count": 441,
      "max": [
        1.0000090599060059,
        1.0000102519989014
      ],
      "min": [
        -0.000009217373190040234,
        -0.000011563301086425781
      ],
      "type": "VEC2"
    },
    {
      "bufferView": 7,
      "componentType": 5123,
      "count": 441,
      "max": [
        440
      ],
      "min": [
        0
      ],
      "type": "SCALAR"
    },
    {
      "bufferView": 8,
      "componentType": 5126,
      "count": 174,
      "max": [
        0.0644814521074295,
        4.172369956970215,
        2.3303890228271484
      ],
      "min": [
        -0.06548399478197098,
        0.8072453737258911,
        -1.7509698867797852
      ],
      "type": "VEC3"
    },
    {
      "bufferView": 9,
      "componentType": 5126,
      "count": 174,
      "max": [
        0.9725391268730164,
        0.8018307089805603,
        0.7994990944862366
      ],
      "min": [
        -0.9667507410049438,
        -0.9532549977302551,
        -0.8593654036521912
      ],
      "type": "VEC3"
    },
    {
      "bufferView": 10,
      "componentType": 5126,
      "count": 174,
      "max": [
        0.875,
        1
      ],
      "min": [
        0.125,
        0
      ],
      "type": "VEC2"
    },
    {
      "bufferView": 11,
      "componentType": 5123,
      "count": 174,
      "max": [
        173
      ],
      "min": [
        0
      ],
      "type": "SCALAR"
    },
    {
      "bufferView": 12,
      "componentType": 5126,
      "count": 396,
      "max": [
        0.07508260011672974,
        0.9799049496650696,
        -1.5207704305648804
      ],
      "min": [
        -0.07505455613136292,
        0.0023708194494247437,
        -2.205150842666626
      ],
      "type": "VEC3"
    },
    {
      "bufferView": 13,
      "componentType": 5126,
      "count": 396,
      "max": [
        0.999816358089447,
        0.9805718064308167,
        0.9880003929138184
      ],
      "min": [
        -0.9907498359680176,
        -0.9554625153541565,
        -0.9985039234161377
      ],
      "type": "VEC3"
    },
    {
      "bufferView": 14,
      "componentType": 5126,
      "count": 396,
      "max": [
        0.75,
        1
      ],
      "min": [
        0.1875,
        0
      ],
      "type": "VEC2"
    },
    {
      "bufferView": 15,
      "componentType": 5123,
      "count": 396,
      "max": [
        395
      ],
      "min": [
        0
      ],
      "type": "SCALAR"
    },
    {
      "bufferView": 16,
      "componentType": 5126,
      "count": 468,
      "max": [
        0.6156356930732727,
        4.185895919799805,
        2.141831874847412
      ],
      "min": [
        -0.6493778228759766,
        3.219529867172241,
        1.2597417831420898
      ],
      "type": "VEC3"
    },
    {
      "bufferView": 17,
      "componentType": 5126,
      "count": 468,
      "max": [
        0.9848252534866333,
        0.9688562154769897,
        0.96369868516922
      ],
      "min": [
        -0.9947396516799927,
        -0.9715682864189148,
        -0.9963473677635193
      ],
      "type": "VEC3"
    },
    {
      "bufferView": 18,
      "componentType": 5126,
      "count": 468,
      "max": [
        1,
        0.987076461315155
      ],
      "min": [
        0,
        0
      ],
      "type": "VEC2"
    },
    {
      "bufferView": 19,
      "componentType": 5123,
      "count": 468,
      "max": [
        467
      ],
      "min": [
        0
      ],
      "type": "SCALAR"
    }
  ],
  "materials": [
    {
      "pbrMetallicRoughness": {
        "baseColorFactor": [
          0.30498719215393066,
          1,
          0.7083760499954224,
          1
        ],
        "metallicFactor": 0,
        "roughnessFactor": 0.5
      },
      "doubleSided": true,
      "name": "材質.002"
    },
    {
      "pbrMetallicRoughness": {
        "baseColorFactor": [
          0.15391044318675995,
          0.32610344886779785,
          0.6283245086669922,
          1
        ],
        "metallicFactor": 0,
        "roughnessFactor": 0.5
      },
      "doubleSided": true,
      "name": "材質.010"
    },
    {
      "pbrMetallicRoughness": {
        "baseColorFactor": [
          0.3093418776988983,
          0.3093418776988983,
          0.3093418776988983,
          1
        ],
        "metallicFactor": 0.36477985978126526,
        "roughnessFactor": 0.5
      },
      "doubleSided": true,
      "name": "材質.011"
    },
    {
      "pbrMetallicRoughness": {
        "baseColorFactor": [
          0.21328946948051453,
          0.18734824657440186,
          0.16152292490005493,
          1
        ],
        "metallicFactor": 0,
        "roughnessFactor": 0.5
      },
      "doubleSided": true,
      "name": "材質.013"
    },
    {
      "pbrMetallicRoughness": {
        "baseColorFactor": [
          0.20190103352069855,
          0.1757124960422516,
          0.15164591372013092,
          1
        ],
        "metallicFactor": 0,
        "roughnessFactor": 0.5
      },
      "doubleSided": true,
      "name": "材質.018"
    }
  ],
  "meshes": [
    {
      "primitives": [
        {
          "mode": 4,
          "attributes": {
            "POSITION": 0,
            "NORMAL": 1,
            "TEXCOORD_0": 2
          },
          "indices": 3,
          "material": 0
        }
      ]
    },
    {
      "primitives": [
        {
          "mode": 4,
          "attributes": {
            "POSITION": 4,
            "NORMAL": 5,
            "TEXCOORD_0": 6
          },
          "indices": 7,
          "material": 1
        }
      ]
    },
    {
      "primitives": [
        {
          "mode": 4,
          "attributes": {
            "POSITION": 8,
            "NORMAL": 9,
            "TEXCOORD_0": 10
          },
          "indices": 11,
          "material": 2
        }
      ]
    },
    {
      "primitives": [
        {
          "mode": 4,
          "attributes": {
            "POSITION": 12,
            "NORMAL": 13,
            "TEXCOORD_0": 14
          },
          "indices": 15,
          "material": 3
        }
      ]
    },
    {
      "primitives": [
        {
          "mode": 4,
          "attributes": {
            "POSITION": 16,
            "NORMAL": 17,
            "TEXCOORD_0": 18
          },
          "indices": 19,
          "material": 4
        }
      ]
    }
  ]
}