{
  "asset": {
    "version": "2.0",
    "generator": "THREE.GLTFExporter"
  },
  "scenes": [
    {
      "name": "Scene",
      "nodes": [
        4
      ]
    }
  ],
  "scene": 0,
  "nodes": [
    {
      "name": "body1",
      "extras": {
        "name": "平面"
      },
      "mesh": 0
    },
    {
      "name": "body2",
      "extras": {
        "name": "平面_1"
      },
      "mesh": 1
    },
    {
      "name": "skeleton",
      "extras": {
        "name": "平面_2"
      },
      "mesh": 2
    },
    {
      "name": "handle",
      "extras": {
        "name": "平面_3"
      },
      "mesh": 3
    },
    {
      "name": "umbrella",
      "extras": {
        "name": "平面.001"
      },
      "children": [
        0,
        1,
        2,
        3
      ]
    }
  ],
  "bufferViews": [
    {
      "buffer": 0,
      "byteOffset": 0,
      "byteLength": 6912,
      "target": 34962,
      "byteStride": 12
    },
    {
      "buffer": 0,
      "byteOffset": 6912,
      "byteLength": 6912,
      "target": 34962,
      "byteStride": 12
    },
    {
      "buffer": 0,
      "byteOffset": 13824,
      "byteLength": 4608,
      "target": 34962,
      "byteStride": 8
    },
    {
      "buffer": 0,
      "byteOffset": 18432,
      "byteLength": 1728,
      "target": 34963
    },
    {
      "buffer": 0,
      "byteOffset": 20160,
      "byteLength": 6912,
      "target": 34962,
      "byteStride": 12
    },
    {
      "buffer": 0,
      "byteOffset": 27072,
      "byteLength": 6912,
      "target": 34962,
      "byteStride": 12
    },
    {
      "buffer": 0,
      "byteOffset": 33984,
      "byteLength": 4608,
      "target": 34962,
      "byteStride": 8
    },
    {
      "buffer": 0,
      "byteOffset": 38592,
      "byteLength": 1728,
      "target": 34963
    },
    {
      "buffer": 0,
      "byteOffset": 40320,
      "byteLength": 2784,
      "target": 34962,
      "byteStride": 12
    },
    {
      "buffer": 0,
      "byteOffset": 43104,
      "byteLength": 2784,
      "target": 34962,
      "byteStride": 12
    },
    {
      "buffer": 0,
      "byteOffset": 45888,
      "byteLength": 1856,
      "target": 34962,
      "byteStride": 8
    },
    {
      "buffer": 0,
      "byteOffset": 47744,
      "byteLength": 696,
      "target": 34963
    },
    {
      "buffer": 0,
      "byteOffset": 48440,
      "byteLength": 17280,
      "target": 34962,
      "byteStride": 12
    },
    {
      "buffer": 0,
      "byteOffset": 65720,
      "byteLength": 17280,
      "target": 34962,
      "byteStride": 12
    },
    {
      "buffer": 0,
      "byteOffset": 83000,
      "byteLength": 11520,
      "target": 34962,
      "byteStride": 8
    },
    {
      "buffer": 0,
      "byteOffset": 94520,
      "byteLength": 4308,
      "target": 34963
    }
  ],
  "buffers": [
    {
      "byteLength": 98828,
      "uri": "data:application/octet-stream;base64,"
    }
  ],
  "accessors": [
    {
      "bufferView": 0,
      "componentType": 5126,
      "count": 576,
      "max": [
        3.322739839553833,
        5.094391345977783,
        2.5435781478881836
      ],
      "min": [
        -3.322739601135254,
        -0.001672506332397461,
        -2.150228500366211
      ],
      "type": "VEC3"
    },
    {
      "bufferView": 1,
      "componentType": 5126,
      "count": 576,
      "max": [
        0.8834853172302246,
        0.9998289942741394,
        0.9999879598617554
      ],
      "min": [
        -0.8834851980209351,
        -0.34734806418418884,
        -0.23501896858215332
      ],
      "type": "VEC3"
    },
    {
      "bufferView": 2,
      "componentType": 5126,
      "count": 576,
      "max": [
        1,
        1
      ],
      "min": [
        0,
        0
      ],
      "type": "VEC2"
    },
    {
      "bufferView": 3,
      "componentType": 5123,
      "count": 864,
      "max": [
        575
      ],
      "min": [
        0
      ],
      "type": "SCALAR"
    },
    {
      "bufferView": 4,
      "componentType": 5126,
      "count": 576,
      "max": [
        3.322739839553833,
        5.094391345977783,
        2.5435781478881836
      ],
      "min": [
        -3.322739601135254,
        -0.001672506332397461,
        -2.150228500366211
      ],
      "type": "VEC3"
    },
    {
      "bufferView": 5,
      "componentType": 5126,
      "count": 576,
      "max": [
        0.883484959602356,
        0.9998289346694946,
        0.9999879002571106
      ],
      "min": [
        -0.8834857940673828,
        -0.34734004735946655,
        -0.2350190430879593
      ],
      "type": "VEC3"
    },
    {
      "bufferView": 6,
      "componentType": 5126,
      "count": 576,
      "max": [
        1,
        1
      ],
      "min": [
        0,
        0
      ],
      "type": "VEC2"
    },
    {
      "bufferView": 7,
      "componentType": 5123,
      "count": 864,
      "max": [
        575
      ],
      "min": [
        0
      ],
      "type": "SCALAR"
    },
    {
      "bufferView": 8,
      "componentType": 5126,
      "count": 232,
      "max": [
        0.0687873363494873,
        4.339511394500732,
        2.145854949951172
      ],
      "min": [
        -0.0687868595123291,
        0.8151706457138062,
        -1.7931103706359863
      ],
      "type": "VEC3"
    },
    {
      "bufferView": 9,
      "componentType": 5126,
      "count": 232,
      "max": [
        1,
        0.9971981048583984,
        0.9820528030395508
      ],
      "min": [
        -1,
        -0.9971983432769775,
        -0.9820525646209717
      ],
      "type": "VEC3"
    },
    {
      "bufferView": 10,
      "componentType": 5126,
      "count": 232,
      "max": [
        0.875,
        1
      ],
      "min": [
        0.125,
        0
      ],
      "type": "VEC2"
    },
    {
      "bufferView": 11,
      "componentType": 5123,
      "count": 348,
      "max": [
        231
      ],
      "min": [
        0
      ],
      "type": "SCALAR"
    },
    {
      "bufferView": 12,
      "componentType": 5126,
      "count": 1440,
      "max": [
        0.07468545436859131,
        0.9831691980361938,
        -1.5340843200683594
      ],
      "min": [
        -0.07468581199645996,
        0.0014805793762207031,
        -2.2190427780151367
      ],
      "type": "VEC3"
    },
    {
      "bufferView": 13,
      "componentType": 5126,
      "count": 1440,
      "max": [
        0.9999992251396179,
        0.9983516931533813,
        0.9983524084091187
      ],
      "min": [
        -0.9999993443489075,
        -0.9983516335487366,
        -0.9983515739440918
      ],
      "type": "VEC3"
    },
    {
      "bufferView": 14,
      "componentType": 5126,
      "count": 1440,
      "max": [
        0.75,
        1
      ],
      "min": [
        0.1875,
        0
      ],
      "type": "VEC2"
    },
    {
      "bufferView": 15,
      "componentType": 5123,
      "count": 2154,
      "max": [
        1439
      ],
      "min": [
        0
      ],
      "type": "SCALAR"
    }
  ],
  "materials": [
    {
      "pbrMetallicRoughness": {
        "baseColorFactor": [
          0.302961528301239,
          1,
          0.7046684622764587,
          1
        ],
        "metallicFactor": 0,
        "roughnessFactor": 0.5
      },
      "doubleSided": true,
      "name": "材質.002"
    },
    {
      "pbrMetallicRoughness": {
        "baseColorFactor": [
          0.15391044318675995,
          0.32610344886779785,
          0.6283245086669922,
          1
        ],
        "metallicFactor": 0,
        "roughnessFactor": 0.5
      },
      "doubleSided": true,
      "name": "材質.010"
    },
    {
      "pbrMetallicRoughness": {
        "baseColorFactor": [
          0.3093418776988983,
          0.3093418776988983,
          0.3093418776988983,
          1
        ],
        "metallicFactor": 0.36477985978126526,
        "roughnessFactor": 0.5
      },
      "doubleSided": true,
      "name": "材質.011"
    },
    {
      "pbrMetallicRoughness": {
        "baseColorFactor": [
          0.21328946948051453,
          0.18734824657440186,
          0.16152292490005493,
          1
        ],
        "metallicFactor": 0,
        "roughnessFactor": 0.5
      },
      "doubleSided": true,
      "name": "材質.013"
    }
  ],
  "meshes": [
    {
      "primitives": [
        {
          "mode": 4,
          "attributes": {
            "POSITION": 0,
            "NORMAL": 1,
            "TEXCOORD_0": 2
          },
          "indices": 3,
          "material": 0
        }
      ]
    },
    {
      "primitives": [
        {
          "mode": 4,
          "attributes": {
            "POSITION": 4,
            "NORMAL": 5,
            "TEXCOORD_0": 6
          },
          "indices": 7,
          "material": 1
        }
      ]
    },
    {
      "primitives": [
        {
          "mode": 4,
          "attributes": {
            "POSITION": 8,
            "NORMAL": 9,
            "TEXCOORD_0": 10
          },
          "indices": 11,
          "material": 2
        }
      ]
    },
    {
      "primitives": [
        {
          "mode": 4,
          "attributes": {
            "POSITION": 12,
            "NORMAL": 13,
            "TEXCOORD_0": 14
          },
          "indices": 15,
          "material": 3
        }
      ]
    }
  ]
}